<svg xmlns="http://www.w3.org/2000/svg" viewBox="0 0 500 500"><g id="freepik--background-complete--inject-38"><path d="M95.6,324.51c0-1.92-.11-3.82-.13-5.7l.28.28c-4.54.05-9.09.16-13.63.17l-13.63.06.51-.51,0,11.52-.46-.46c2.24,0,4.48,0,6.74.06L82,330l13.75.29Zm-13.36,6.1-6.86.12c-2.29,0-4.59,0-6.89.06H68v-.46L68,318.81v-.52h.52l13.63.07c4.54,0,9.09.11,13.63.17H96v.28c0,1.95-.09,3.9-.13,5.82l-.15,5.7Z" style="fill:#ebebeb"></path><path d="M80.4,339c-.05-1.92-.12-3.81-.14-5.7l.28.28c-4.54.06-9.08.17-13.63.17l-13.63.07.52-.52-.06,11.52-.46-.46c2.25,0,4.49,0,6.74.06l6.77.12,13.75.28ZM67,345.14l-6.86.11c-2.29.05-4.59,0-6.89.06h-.46v-.47l0-11.52v-.51h.52l13.63.06c4.55,0,9.09.12,13.63.17h.29v.27c0,2-.09,3.9-.13,5.82l-.15,5.7Z" style="fill:#ebebeb"></path><path d="M110.81,339c0-1.92-.12-3.81-.14-5.7l.29.28c-4.55.06-9.09.17-13.63.17l-13.63.07.51-.52-.06,11.52-.45-.46c2.24,0,4.48,0,6.73.06l6.78.12,13.75.28Zm-13.37,6.11-6.85.11c-2.29.05-4.6,0-6.89.06h-.46v-.47l-.06-11.52v-.51h.52l13.63.06c4.54,0,9.08.12,13.63.17h.28v.27c0,2-.09,3.9-.14,5.82l-.14,5.7Z" style="fill:#ebebeb"></path><path d="M431.6,339c-.05-1.92-.12-3.81-.14-5.7l.28.28c-4.54.06-9.08.17-13.63.17l-13.63.07.52-.52-.06,11.52-.46-.46c2.25,0,4.49,0,6.74.06l6.78.12,13.74.28Zm-13.37,6.11-6.85.11c-2.3.05-4.6,0-6.9.06H404v-.47L404,333.33v-.51h.51l13.63.06c4.55,0,9.09.12,13.63.17H432v.27c0,2-.09,3.9-.14,5.82l-.15,5.7Z" style="fill:#ebebeb"></path><path d="M431.6,55c-.05-1.92-.12-3.81-.14-5.7l.28.28c-4.54.05-9.08.16-13.63.17l-13.63.06.52-.51-.06,11.52-.46-.46c2.25,0,4.49,0,6.74.06l6.78.11,13.74.29Zm-13.37,6.11-6.85.11c-2.3.05-4.6,0-6.9.06H404v-.46L404,49.34v-.52h.51l13.63.06c4.55,0,9.09.12,13.63.17H432v.28c0,1.95-.09,3.9-.14,5.82l-.15,5.7Z" style="fill:#ebebeb"></path><path d="M446.81,69.56c-.05-1.91-.12-3.81-.14-5.69l.28.28c-4.54,0-9.09.16-13.63.16l-13.63.07.51-.51-.05,11.51-.46-.45c2.25,0,4.49,0,6.74,0l6.77.12,13.75.28Zm-13.37,6.11-6.86.12c-2.29,0-4.59,0-6.89,0h-.46v-.47l-.05-11.51v-.52h.52l13.63.07c4.54,0,9.09.11,13.63.16h.29v.28c0,1.95-.09,3.89-.13,5.82L447,75.38Z" style="fill:#ebebeb"></path><path d="M80.4,55.05c-.05-1.92-.12-3.81-.14-5.7l.28.28c-4.54.06-9.08.17-13.63.17l-13.63.07.52-.52-.06,11.52-.46-.46c2.25,0,4.49,0,6.74.06l6.77.11,13.75.29ZM67,61.16l-6.86.11c-2.29,0-4.59,0-6.89.06h-.46v-.46l0-11.52v-.51h.52l13.63.06c4.55,0,9.09.12,13.63.17h.29v.28c0,2-.09,3.9-.13,5.82l-.15,5.7Z" style="fill:#ebebeb"></path><path d="M219,175.34c.05,1.92.12,3.82.14,5.7l-.28-.28c4.54,0,9.08-.16,13.63-.17l13.63-.06-.52.51.06-11.52.46.46c-2.25,0-4.49,0-6.74,0l-6.78-.12-13.74-.29Zm13.37-6.1,6.85-.12c2.3-.05,4.6,0,6.9-.05h.45v.46l.06,11.52v.52h-.51l-13.63-.07c-4.55,0-9.09-.11-13.63-.17h-.29V181c0-1.95.09-3.89.14-5.82l.15-5.7Z" style="fill:#ebebeb"></path><path d="M234.16,160.82c0,1.92.11,3.81.13,5.7l-.28-.28c4.55-.06,9.09-.17,13.63-.17l13.63-.07-.51.52.05-11.52.46.46c-2.24,0-4.48,0-6.74-.06l-6.77-.11L234,155Zm13.36-6.11,6.86-.11c2.29,0,4.6,0,6.89-.06h.46V155l.06,11.52V167h-.52L247.64,167c-4.54,0-9.08-.12-13.63-.17h-.28v-.28c0-2,.09-3.9.14-5.82L234,155Z" style="fill:#ebebeb"></path><rect x="57.1" y="182.69" width="44.34" height="44.34" transform="translate(284.13 125.59) rotate(90)" style="fill:#dbdbdb"></rect><rect x="63.97" y="189.56" width="30.59" height="30.59" transform="translate(284.13 125.59) rotate(90)" style="fill:#fff"></rect><polygon points="94.56 189.56 63.97 189.56 63.97 220.15 94.56 189.56" style="fill:#ebebeb"></polygon><rect x="52.76" y="182.69" width="4.33" height="44.34" transform="translate(109.86 409.72) rotate(180)" style="fill:#c7c7c7"></rect><rect x="111.99" y="182.69" width="44.34" height="44.34" transform="translate(339.01 70.7) rotate(90)" style="fill:#dbdbdb"></rect><rect x="118.86" y="189.56" width="30.59" height="30.59" transform="translate(339.01 70.7) rotate(90)" style="fill:#fff"></rect><polygon points="140.47 189.56 118.86 189.56 118.86 211.17 140.47 189.56" style="fill:#ebebeb"></polygon><rect x="107.65" y="182.69" width="4.33" height="44.34" transform="translate(219.64 409.72) rotate(180)" style="fill:#c7c7c7"></rect><rect x="77.74" y="217" width="57.95" height="99.23" transform="translate(373.33 159.9) rotate(90)" style="fill:#dbdbdb"></rect><rect x="84.9" y="224.24" width="43.62" height="84.74" transform="translate(373.33 159.9) rotate(90)" style="fill:#fff"></rect><polygon points="119.89 244.81 64.34 244.81 64.34 273.4 119.89 244.81" style="fill:#ebebeb"></polygon><rect x="52.76" y="237.64" width="4.33" height="57.95" transform="translate(109.86 533.23) rotate(180)" style="fill:#c7c7c7"></rect><rect x="57.1" y="73.12" width="99.23" height="99.23" transform="translate(229.45 16.02) rotate(90)" style="fill:#dbdbdb"></rect><rect x="64.34" y="80.36" width="84.75" height="84.73" style="fill:#fff"></rect><path d="M64.34,141.37c12.88-12.81,49.38-49.13,61.11-61H64.34Z" style="fill:#ebebeb"></path><rect x="52.76" y="73.12" width="4.33" height="99.23" transform="translate(109.86 245.47) rotate(180)" style="fill:#c7c7c7"></rect><path d="M203.21,284.21a19,19,0,1,1,8.71-20.55A19,19,0,0,1,203.21,284.21Z" style="fill:#ebebeb"></path><path d="M199.22,265.84a5.78,5.78,0,1,1-5.71-5.85A5.79,5.79,0,0,1,199.22,265.84Z" style="fill:#fff"></path><path d="M203.23,281.83l0,2.38a19,19,0,0,1-20-.25l0-2.37a10,10,0,1,1,20,.24Z" style="fill:#fff"></path><path d="M426.94,143.77a34.13,34.13,0,0,1-10.11,4.09,34.9,34.9,0,1,1,10.11-4.09Z" style="fill:#ebebeb"></path><path d="M419.61,110a10.62,10.62,0,1,1-10.49-10.74A10.62,10.62,0,0,1,419.61,110Z" style="fill:#fff"></path><path d="M427,139.39l-.05,4.38a34.13,34.13,0,0,1-10.11,4.09,34.74,34.74,0,0,1-26.59-4.54l.05-4.37a18.35,18.35,0,0,1,36.7.44Z" style="fill:#fff"></path><g id="freepik--aiZGp2--inject-38"><path d="M422.79,263.91a24.1,24.1,0,0,0-1.63,7.49h-6.63v-.19c0-.17,0-.34.05-.51a17.78,17.78,0,0,1,.44-2.61,20.5,20.5,0,0,1,1.47-4.08.15.15,0,0,1,.16-.1h6.14Z" style="fill:#ebebeb"></path><path d="M422.59,280.63H416.5a.14.14,0,0,1-.15-.09,19.16,19.16,0,0,1-1.51-4.61,20.05,20.05,0,0,1-.3-2.33s0-.05,0-.08v-.18H421c.12,0,.11,0,.12.12,0,.53.08,1.07.13,1.6a19.59,19.59,0,0,0,.41,2.51,24.1,24.1,0,0,0,.86,3A.46.46,0,0,1,422.59,280.63Z" style="fill:#ebebeb"></path><path d="M448.21,282.56l0,.09a18.82,18.82,0,0,1-1.73,2.24,16.42,16.42,0,0,1-2.53,2.33A17.77,17.77,0,0,1,441,289a18.49,18.49,0,0,1-3,1.18,18.07,18.07,0,0,1-2.53.54l-.25,0H435l-.14-.09.16-.11a19.5,19.5,0,0,0,4.8-4.66,21.57,21.57,0,0,0,2-3.26.13.13,0,0,1,.15-.09h6.23Z" style="fill:#ebebeb"></path><path d="M442.12,271.39h-8.56v-7.47h6.68a.11.11,0,0,1,.13.09,20.4,20.4,0,0,1,1.36,4.38,19.29,19.29,0,0,1,.33,2.37Z" style="fill:#ebebeb"></path><path d="M442.06,273.39c0,.17,0,.35,0,.52,0,.42-.07.84-.13,1.25-.08.58-.16,1.15-.28,1.72a20.12,20.12,0,0,1-1.11,3.64c0,.08-.06.12-.15.12h-6.86v-7.24Z" style="fill:#ebebeb"></path><path d="M431.63,264v7.49h-8.35c0-.19,0-.38,0-.56.05-.42.08-.84.15-1.26.1-.63.21-1.27.34-1.89a19.92,19.92,0,0,1,1.21-3.69.13.13,0,0,1,.14-.09h6.48Z" style="fill:#ebebeb"></path><path d="M431.64,273.49v7.14H425a.12.12,0,0,1-.14-.09,18.5,18.5,0,0,1-1.14-3.78c-.13-.66-.22-1.33-.31-2-.05-.44-.06-.89-.09-1.33,0,0,0,0,0-.05h8.25C431.62,273.38,431.64,273.4,431.64,273.49Z" style="fill:#ebebeb"></path><path d="M451.19,271.45h-7a24.48,24.48,0,0,0-1.64-7.54h6.54a.14.14,0,0,1,.15.09,18.49,18.49,0,0,1,1.62,4.69,21,21,0,0,1,.34,2.63Z" style="fill:#ebebeb"></path><path d="M451.19,273.33c0,.17,0,.33,0,.49-.05.63-.12,1.26-.23,1.89a18.15,18.15,0,0,1-1.29,4.21c-.09.22-.2.43-.29.65a.1.1,0,0,1-.11.06h-6.51c.08-.23.16-.44.23-.66a22.56,22.56,0,0,0,.87-3.42,24.1,24.1,0,0,0,.3-2.54l0-.6c0-.06,0-.08.08-.08h6.94Z" style="fill:#ebebeb"></path><path d="M448,262l0,0h-6.22c-.07,0-.11,0-.14-.08a20.92,20.92,0,0,0-3.05-4.51,17,17,0,0,0-2.33-2.16c-.42-.32-.86-.62-1.28-.93a.18.18,0,0,1-.07,0l.08-.06a.93.93,0,0,0,0-.13A18.35,18.35,0,0,1,448,262Z" style="fill:#ebebeb"></path><path d="M430.44,290.69l-.17,0a16.82,16.82,0,0,1-2-.39,17.3,17.3,0,0,1-3.56-1.32,18.18,18.18,0,0,1-3.63-2.38,16.63,16.63,0,0,1-2.18-2.18,19.08,19.08,0,0,1-1.36-1.88.33.33,0,0,1,0-.06h5.81a.14.14,0,0,1,.15.09,22.19,22.19,0,0,0,2.09,3.42,21.89,21.89,0,0,0,2.46,2.72,18.87,18.87,0,0,0,2.37,1.91Z" style="fill:#ebebeb"></path><path d="M430.37,254.29l-.87.63a21.74,21.74,0,0,0-2.76,2.58,19.31,19.31,0,0,0-2.91,4.14l-.14.28a.13.13,0,0,1-.09.06h-5.9a18.21,18.21,0,0,1,12.6-7.83l0,.07Z" style="fill:#ebebeb"></path><path d="M439.56,282.57a20,20,0,0,1-2.82,3.82,17.68,17.68,0,0,1-3.23,2.74v-6.56Z" style="fill:#ebebeb"></path><path d="M431.63,282.57V289a18.66,18.66,0,0,1-5.81-6.43Z" style="fill:#ebebeb"></path><path d="M439.37,262h-5.81v-6.13a17.43,17.43,0,0,1,3.26,2.73A19.86,19.86,0,0,1,439.37,262Z" style="fill:#ebebeb"></path><path d="M431.63,256v6h-5.58A17.69,17.69,0,0,1,431.63,256Z" style="fill:#ebebeb"></path></g><path d="M190.41,115.06h-2.7a3,3,0,0,1-3.06-3.06,3.07,3.07,0,0,1,3.06-3.06h3.76l1.77-10.23h-3.42a3.06,3.06,0,0,1,0-6.12h4.48l1.17-7a3,3,0,0,1,3.06-2.53,3.15,3.15,0,0,1,3.06,3.6l-1.05,5.93h9.23l1.17-7a3,3,0,0,1,3.12-2.53,3.11,3.11,0,0,1,3,3.6l-1,5.93h2.71a3.07,3.07,0,0,1,3,3.06,3.11,3.11,0,0,1-3,3.06H215l-1.77,10.23h3.35a3,3,0,0,1,3.06,3.06,3.07,3.07,0,0,1-3.06,3.06h-4.41l-1.24,7.23a3,3,0,0,1-3.06,2.53,3.1,3.1,0,0,1-3.06-3.58l1.12-6.18H196.7l-1.23,7.23a3.07,3.07,0,0,1-3.11,2.53,3,3,0,0,1-3-3.58ZM207,108.94l1.77-10.23h-9.19l-1.76,10.23Z" style="fill:#ebebeb"></path><path d="M348.14,303.26a25.1,25.1,0,1,0-10.09,49.18,24.09,24.09,0,0,0,6.14.47,2,2,0,0,0,1.62-.68,2,2,0,0,0,.49-1.59,1.68,1.68,0,0,0-.44-1.34,2.26,2.26,0,0,0-1.78-.7,18.55,18.55,0,0,1-5.14-.51A20.66,20.66,0,1,1,363.31,332a19.51,19.51,0,0,1-4.13,8.78c-.32.5-2.29,2.45-4.26,2.53l-.49-.1c-.63-.12-.75-.35-.76-.38a6.17,6.17,0,0,1-.16-1.44c.21-2.5,2.05-10,2.07-10l.19-.9c1.51-7.35-2.95-14.5-9.93-15.94s-14,3.37-15.53,10.72,3,14.67,10,16.12a12.25,12.25,0,0,0,9.08-1.69l-.23,1.12a6.48,6.48,0,0,0,.46,3.84,5.24,5.24,0,0,0,3.89,2.94,5.52,5.52,0,0,0,1.54.16,11.82,11.82,0,0,0,7.43-3.88l.14-.14.11-.11a25.27,25.27,0,0,0-14.62-40.29Zm-6.87,33.49c-4.62-.95-7.44-5.61-6.41-10.62s5.54-8.24,10.09-7.31,7.47,5.82,6.47,10.7S345.85,337.69,341.27,336.75Z" style="fill:#ebebeb"></path></g><g id="freepik--Shadow--inject-38"><ellipse cx="250" cy="434.83" rx="169.22" ry="15.36" style="fill:#ebebeb"></ellipse></g><g id="freepik--light-bulb--inject-38"><path d="M375.81,176.33c-6.61,56.6-43,67-49.06,82.11-3.25,8.17-7.56,28.94-7.56,28.94H260.05s-4.28-20.77-7.57-28.94c-6.06-15.09-42.46-25.49-49-82.09-4.35-37.19,23.6-95.92,86.17-95.93S380.11,139.14,375.81,176.33Z" style="fill:#5C26E3"></path><path d="M375.81,176.33c-6.61,56.6-43,67-49.06,82.11-3.25,8.17-7.56,28.94-7.56,28.94H260.05s-4.28-20.77-7.57-28.94c-6.06-15.09-42.46-25.49-49-82.09-4.35-37.19,23.6-95.92,86.17-95.93S380.11,139.14,375.81,176.33Z" style="fill:#fff;opacity:0.6000000000000001"></path><rect x="265.82" y="196.37" width="1" height="95.69" transform="translate(-40.3 53.02) rotate(-10.58)" style="fill:#fff"></rect><rect x="265.09" y="243.71" width="95.69" height="1" transform="translate(15.39 506.96) rotate(-79.41)" style="fill:#fff"></rect><path d="M289.62,228c-5.24,0-10.15-5.21-13.57-11.72-1.59,2-3.38,3.21-5.19,3.21-8.45,0-11.92-17.86-12.07-18.62l.49-.1c0,.18,3.54,18.22,11.58,18.22h0c1.7,0,3.41-1.25,4.94-3.2-2.79-5.49-4.51-11.82-4.52-16.71s1.7-7.55,4.79-7.55h0c3.63,0,5.63,2.86,5.63,8a29.62,29.62,0,0,1-5.33,16.3c3.32,6.44,8.12,11.62,13.25,11.62h0c3.86,0,7.71-3,10.83-8.4.31-.54.61-1.1.9-1.67-3.73-3.93-5.51-10.66-5.51-15.76,0-6.25,2.28-10.14,5.94-10.14h0a3.64,3.64,0,0,1,3.29,2c2.54,4.39,1,15.42-3.13,23.78a9.16,9.16,0,0,0,6.56,2.85h0c6.91,0,12-18.11,12.07-18.29l.48.13c-.21.77-5.26,18.66-12.55,18.66h0a9.55,9.55,0,0,1-6.79-2.89c-.27.53-.55,1-.84,1.54C298.61,223.26,294.81,228,289.62,228Zm12.17-36h0c-4,0-5.44,5-5.44,9.64,0,5,1.7,11.45,5.24,15.3,4-8.2,5.52-18.9,3.07-23.15A3.19,3.19,0,0,0,301.79,192Zm-25.72,0h0c-3.73,0-4.29,4.42-4.29,7,0,4.77,1.66,10.93,4.33,16.29a29.62,29.62,0,0,0,5.09-15.79C281.2,196.72,280.53,192,276.07,192Z" style="fill:#fff"></path><rect x="253.15" y="284.86" width="72.96" height="14.26" style="fill:#455a64"></rect><rect x="253.16" y="301.42" width="72.96" height="14.26" style="fill:#455a64"></rect><rect x="253.16" y="317.99" width="72.96" height="14.26" style="fill:#455a64"></rect><path d="M288.6,70.28a101.33,101.33,0,0,1-.69-10.72,98.92,98.92,0,0,1,.3-10.74,101.5,101.5,0,0,1,.69,10.72A101.37,101.37,0,0,1,288.6,70.28Z" style="fill:#263238"></path><path d="M239.6,84a103.61,103.61,0,0,1-6-8.94,102.22,102.22,0,0,1-5.11-9.45A113.32,113.32,0,0,1,239.6,84Z" style="fill:#263238"></path><path d="M204,120.29a100.18,100.18,0,0,1-9.64-4.75,104.94,104.94,0,0,1-9.15-5.63,99,99,0,0,1,9.64,4.75A104.94,104.94,0,0,1,204,120.29Z" style="fill:#263238"></path><path d="M191.35,169.56a115.4,115.4,0,0,1-21.46.4,101.35,101.35,0,0,1,10.72-.7A104.26,104.26,0,0,1,191.35,169.56Z" style="fill:#263238"></path><path d="M205,218.56a100,100,0,0,1-8.94,6,102.22,102.22,0,0,1-9.45,5.11,100,100,0,0,1,8.94-6A102.22,102.22,0,0,1,205,218.56Z" style="fill:#263238"></path><path d="M375.22,216.81a101.46,101.46,0,0,1,9.64,4.76A100.29,100.29,0,0,1,394,227.2a115.68,115.68,0,0,1-18.79-10.39Z" style="fill:#263238"></path><path d="M387.88,167.54a115.4,115.4,0,0,1,21.46-.4,98.76,98.76,0,0,1-10.72.7A101.52,101.52,0,0,1,387.88,167.54Z" style="fill:#263238"></path><path d="M374.21,118.54a102.09,102.09,0,0,1,8.94-6,97.67,97.67,0,0,1,9.45-5.11,99.89,99.89,0,0,1-8.94,6A102.22,102.22,0,0,1,374.21,118.54Z" style="fill:#263238"></path><path d="M337.87,82.94a102.48,102.48,0,0,1,4.76-9.63,100.29,100.29,0,0,1,5.63-9.15,99,99,0,0,1-4.76,9.63A98.94,98.94,0,0,1,337.87,82.94Z" style="fill:#263238"></path></g><g id="freepik--Icons--inject-38"><path d="M308.62,146.21a6.38,6.38,0,1,1-6.38-6.38A6.38,6.38,0,0,1,308.62,146.21Z" style="fill:#263238"></path><path d="M313.26,163.78v2.33H291.21v-2.33a11,11,0,0,1,22.05,0Z" style="fill:#263238"></path><path d="M292.29,150.05a6.38,6.38,0,1,1-6.38-6.37A6.38,6.38,0,0,1,292.29,150.05Z" style="fill:#455a64"></path><path d="M296.93,167.62V170H274.88v-2.33a11,11,0,0,1,22.05,0Z" style="fill:#455a64"></path><path d="M248.76,238a1.65,1.65,0,0,1,1.75,0l.45.25a5.21,5.21,0,0,0,.47.24,1.68,1.68,0,0,1,1,1.45l.06,2.16,7-.22-.07-2.16a1.68,1.68,0,0,1,.89-1.51,10.23,10.23,0,0,0,.89-.56,1.67,1.67,0,0,1,1.75-.11l1.9,1,3.33-6.21-1.9-1a1.68,1.68,0,0,1-.88-1.52,9.21,9.21,0,0,0,0-1.05,1.69,1.69,0,0,1,.77-1.58l1.84-1.14-3.71-6-1.85,1.15a1.67,1.67,0,0,1-1.75,0,4.79,4.79,0,0,0-.45-.25c-.15-.09-.3-.16-.46-.24a1.68,1.68,0,0,1-1-1.45l-.06-2.17-7,.22.07,2.16a1.69,1.69,0,0,1-.89,1.52,9.29,9.29,0,0,0-.89.55,1.67,1.67,0,0,1-1.75.11l-1.9-1L243,226.86l1.9,1a1.68,1.68,0,0,1,.88,1.52,9.21,9.21,0,0,0,0,1A1.7,1.7,0,0,1,245,232l-1.83,1.13,3.71,6Zm1.76-11.12a5.76,5.76,0,1,1,2.36,7.81A5.77,5.77,0,0,1,250.52,226.89Z" style="fill:#263238"></path><path d="M209.13,169.84a1.17,1.17,0,0,1,.58,1.09c0,.12,0,.24,0,.36s0,.25,0,.37a1.17,1.17,0,0,1-.57,1.08l-1.32.76,2.47,4.27,1.31-.75a1.16,1.16,0,0,1,1.23,0c.2.13.42.25.64.37a1.17,1.17,0,0,1,.64,1V180h4.94v-1.51a1.17,1.17,0,0,1,.64-1c.22-.12.44-.24.64-.37a1.16,1.16,0,0,1,1.23,0l1.31.75,2.47-4.27-1.32-.76a1.18,1.18,0,0,1-.57-1.09c0-.12,0-.24,0-.36s0-.24,0-.36a1.18,1.18,0,0,1,.57-1.09l1.32-.76-2.47-4.27-1.31.76a1.18,1.18,0,0,1-1.23,0,5.07,5.07,0,0,0-.64-.37,1.18,1.18,0,0,1-.64-1v-1.5h-4.94v1.5a1.17,1.17,0,0,1-.65,1,5,5,0,0,0-.63.37,1.18,1.18,0,0,1-1.23,0l-1.31-.76-2.47,4.27Zm7.45-2.59a4,4,0,1,1-4,4A4,4,0,0,1,216.58,167.25Z" style="fill:#455a64"></path><path d="M238.51,131.6c-.63-6.33-5-12.63-12.66-12.63s-12,6.3-12.65,12.63c-1,9.77,5.63,18.61,12.65,26.69C232.89,150.21,239.48,141.37,238.51,131.6Zm-12.66,7a6.93,6.93,0,1,1,6.94-6.93A6.93,6.93,0,0,1,225.85,138.62Z" style="fill:#5C26E3"></path><circle cx="269.11" cy="113.08" r="28.98" style="fill:#455a64"></circle><path d="M268.41,105.05c-.07,1.85,0,3.71,0,5.71h7.2c-.3,2.37-.57,4.56-.92,6.74,0,.22-.57.48-.88.5-1.73,0-3.46,0-5.35,0v24a28.77,28.77,0,0,1-7.64-1.19V118.07h-6.3v-7.25h6.17c0-.54.06-1,.06-1.4,0-1.91,0-3.82.16-5.71.39-4.15,2.94-7.06,7-7.63A57.38,57.38,0,0,1,275.8,96v6.58c-.94,0-1.91,0-2.85,0a12.57,12.57,0,0,0-2.53.18A2.36,2.36,0,0,0,268.41,105.05Z" style="fill:#fff"></path><circle cx="344.76" cy="154.61" r="28.98" style="fill:#455a64"></circle><path d="M328.93,168.21A16.13,16.13,0,0,0,339.37,165c-4.31-1.32-6-2.63-6.66-5.09l2.89-.14c-3.41-1.31-5.41-3.6-5.67-7.34l3,.79c-3.13-3.94-3.76-7-1.89-9.84A21.5,21.5,0,0,0,346.33,151c0-.48-.05-.85-.07-1.22a7.44,7.44,0,0,1,12.24-6.1,1.52,1.52,0,0,0,1.65.34c1.16-.44,2.33-.86,3.61-1.33a7.37,7.37,0,0,1-2.84,3.64l.08.22,3.58-.92.14.14c-.92.93-1.81,1.9-2.79,2.78a1.91,1.91,0,0,0-.78,1.59,20.93,20.93,0,0,1-19.07,21,21.2,21.2,0,0,1-12.43-2.53Z" style="fill:#fff"></path><circle cx="231.76" cy="202.42" r="20.32" transform="translate(-4.97 399.01) rotate(-80.84)" style="fill:#455a64"></circle><g id="freepik--2dqxsktif--inject-38"><path d="M223.8,191.76l.08,0a2.57,2.57,0,0,1,1.47,4.51,2.45,2.45,0,0,1-1.21.58,2.8,2.8,0,0,1-.71,0,2.54,2.54,0,0,1-2.21-1.82,2.36,2.36,0,0,1-.1-.53s0-.08,0-.1v-.22s0-.06,0-.09a1.46,1.46,0,0,1,0-.22,2.44,2.44,0,0,1,.63-1.32,2.49,2.49,0,0,1,1.71-.82l.09,0Z" style="fill:#fff"></path><path d="M232.94,200.72l.06-.08a4.85,4.85,0,0,1,.75-.88,4.54,4.54,0,0,1,2.07-1.11,7.4,7.4,0,0,1,1.15-.16,6.77,6.77,0,0,1,.78,0,5.84,5.84,0,0,1,2.18.55,3.72,3.72,0,0,1,1.64,1.55,5.75,5.75,0,0,1,.54,1.37,6.81,6.81,0,0,1,.2,1c0,.17,0,.33,0,.5l.06.94v0c0,.3,0,.6,0,.9,0,1,0,2,0,3,0,1.51,0,3,0,4.54,0,.17,0,.18-.17.18h-4.05c-.21,0-.22-.06-.22-.22,0-1.25,0-2.51,0-3.76s0-2.49,0-3.73a4.72,4.72,0,0,0-.18-1.4,2.83,2.83,0,0,0-.34-.75,1.76,1.76,0,0,0-1.13-.75,2.33,2.33,0,0,0-.53-.06,5.44,5.44,0,0,0-.57,0,2.09,2.09,0,0,0-1.8,1.3,3.88,3.88,0,0,0-.29,1.06,8.92,8.92,0,0,0-.07,1.16v7c0,.07,0,.1-.11.1h-4.14c-.18,0-.19-.06-.19-.2V199c0-.1,0-.14.14-.14h4c.09,0,.13,0,.13.13v1.64s0,.06,0,.1Z" style="fill:#fff"></path><path d="M221.46,205.94v-6.89a.49.49,0,0,1,0-.12.07.07,0,0,1,.08-.08h4.17c.16,0,.2,0,.2.2v13.76c0,.05,0,.1,0,.15a.13.13,0,0,1-.11.1h-4.15c-.15,0-.19,0-.19-.2v-6.93Z" style="fill:#fff"></path></g><circle cx="292.17" cy="202.84" r="28.95" transform="translate(28.32 441.35) rotate(-76.88)" style="fill:#5C26E3"></circle><path d="M309.43,193.3c0-4.7-2.95-7.74-7.61-7.78q-9.66-.11-19.33,0c-4.56,0-7.52,3.06-7.59,7.61,0,3.22,0,6.44,0,9.65s0,6.3,0,9.45c0,4.8,3,7.88,7.73,7.92q9.56.1,19.13,0c4.66-.05,7.65-3.12,7.67-7.76Q309.49,202.85,309.43,193.3Zm-3.08,19.15c0,3-1.63,4.61-4.61,4.63q-9.56.06-19.12,0c-3,0-4.6-1.65-4.62-4.61q0-9.65,0-19.3c0-2.94,1.66-4.64,4.6-4.66q9.57-.06,19.13,0c2.95,0,4.59,1.71,4.62,4.65,0,3.21,0,6.43,0,9.64S306.39,209.23,306.35,212.45Z" style="fill:#fff"></path><path d="M292.19,193.77a9,9,0,1,0,9,9.16A9,9,0,0,0,292.19,193.77Zm-.11,15a6.1,6.1,0,0,1-5.92-5.94,6,6,0,0,1,12,0A6.1,6.1,0,0,1,292.08,208.81Z" style="fill:#fff"></path><path d="M303.9,193.56a1.88,1.88,0,0,1-2.16,1.87,1.9,1.9,0,0,1-2-2.25,2,2,0,0,1,2.18-1.92A2,2,0,0,1,303.9,193.56Z" style="fill:#fff"></path><circle cx="322.21" cy="108.73" r="19.58" transform="translate(131.03 389.95) rotate(-74.44)" style="fill:#5C26E3"></circle><polygon points="314.91 116.24 314.91 101.21 332.83 108.73 314.91 116.24" style="fill:#fff"></polygon><circle cx="274.81" cy="261.98" r="20.32" transform="translate(-78.64 123.31) rotate(-22.21)" style="fill:#5C26E3"></circle><path d="M286.14,264.57c-3.36,6.76-11.34,10.78-11.34,10.78s-8-4-11.32-10.78c-2.8-5.64-1-11.74,3.38-13.07,6.32-1.91,7.94,9.09,7.94,9.09s1.63-11,7.95-9.09C287.16,252.83,288.93,258.93,286.14,264.57Z" style="fill:#fff"></path><circle cx="252.09" cy="163.28" r="20.32" transform="translate(-41.62 226.08) rotate(-45)" style="fill:#263238"></circle><g id="freepik--QfoS7x.tif--inject-38"><path d="M258,155a3.94,3.94,0,0,0,.35.55l0,0A4.64,4.64,0,0,1,258,155Zm.39.59h0l.21.15Zm3.44,3.69v-1.59a6.23,6.23,0,0,1-.62-.15,5.12,5.12,0,0,1-1-.4,5.59,5.59,0,0,1-.92-.6c-.15-.13-.29-.25-.43-.39l-.06-.07,0-.06a2.88,2.88,0,0,1-.33-.43.4.4,0,0,1-.15-.1,5.53,5.53,0,0,1-.64-.64,6,6,0,0,1-.75-1.18,6.7,6.7,0,0,1-.46-1.3c0-.17-.07-.33-.11-.5h0v0h-3.1c-.07,0-.08,0-.08.09v16c0,.24,0,.49-.05.73a7,7,0,0,1-.17.91,1.69,1.69,0,0,1-.19.38,3.31,3.31,0,0,1-.66.83,3,3,0,0,1-.62.45,3.33,3.33,0,0,1-1,.36,2.35,2.35,0,0,1-.37.05,1.61,1.61,0,0,1-.38,0,3.19,3.19,0,0,1-1.26-.26,2.73,2.73,0,0,1-.81-.47,2.4,2.4,0,0,1-.65-.79,5.74,5.74,0,0,1-.27-.71,3.18,3.18,0,0,0,.25.67,0,0,0,0,1,0,0h0a1.44,1.44,0,0,1-.25-.18h0a2.18,2.18,0,0,1-.28-.25,2.64,2.64,0,0,1-.57-.92,4.24,4.24,0,0,1-.17-.61,3.86,3.86,0,0,1-.06-.49,1.51,1.51,0,0,1,0-.3,4.1,4.1,0,0,1,.16-1,3.22,3.22,0,0,1,.49-1,2.94,2.94,0,0,1,.88-.8,3.76,3.76,0,0,1,1-.41l.48-.07a4.7,4.7,0,0,1,.75,0,2.29,2.29,0,0,1,.52.05c.07,0,.08,0,.08-.08v-3.38c-.25,0-.51,0-.77,0a6.88,6.88,0,0,0-.9.1,8.24,8.24,0,0,0-1,.24c-.23.08-.46.17-.68.27a7.23,7.23,0,0,0-1,.55,6,6,0,0,0-.64.49,6.21,6.21,0,0,0-.59.56,6.33,6.33,0,0,0-.64.81,7.52,7.52,0,0,0-.62,1.06,7.86,7.86,0,0,0-.69,2.09c0,.2-.07.41-.09.61a7.84,7.84,0,0,0-.05,1.19,5.34,5.34,0,0,0,.05.69,7.62,7.62,0,0,0,.2,1.08,8.4,8.4,0,0,0,.38,1.1,7.48,7.48,0,0,0,.63,1.14,1.64,1.64,0,0,1,.16.26s.32.38.5.57c-.13-.14-.26-.3-.38-.45a0,0,0,0,1,0,0l.06,0,.14.13h0c.21.16.43.32.66.47a8.45,8.45,0,0,0,.89.49,10.23,10.23,0,0,0,1.2.46,6.39,6.39,0,0,0,.63.13c.18,0,.37.06.56.09a2.06,2.06,0,0,0,.26,0,7.94,7.94,0,0,0,.85,0c.24,0,.48,0,.72-.05a7.93,7.93,0,0,0,.85-.14,6.45,6.45,0,0,0,1.22-.4,6.71,6.71,0,0,0,1.3-.76,7.82,7.82,0,0,0,.9-.82,6.88,6.88,0,0,0,.58-.73,7.62,7.62,0,0,0,.64-1.11,8.49,8.49,0,0,0,.51-1.35q.1-.39.18-.78l.09-.58c0-.11,0-.21,0-.32.09-1.47,0-2.94,0-4.41s0-3,0-4.43v-.08l.15.13a5.81,5.81,0,0,0,.76.54,7.43,7.43,0,0,0,.73.4,9.58,9.58,0,0,0,1.35.51c.34.1.68.18,1,.25l.79.13.48.05h.32c.06,0,.06,0,.06-.07Zm-18,13.6h0Zm.05,0h0S243.85,172.9,243.84,172.89Zm.4.49,0,0Zm10.12-21.61h0Zm1.93,0v0Z" style="fill:#fefefe"></path><path d="M262.82,161.81c0,.06,0,.07-.08.07l-.68,0-.55-.08a6,6,0,0,1-.61-.12,9.36,9.36,0,0,1-1.18-.33c-.31-.1-.62-.23-.92-.36a8.69,8.69,0,0,1-1.07-.61,4.53,4.53,0,0,1-.55-.43s0,0,0,0c0,.62,0,1.24,0,1.86,0,2.16,0,4.33,0,6.5a4.89,4.89,0,0,1,0,.66c0,.15,0,.3-.06.44s-.07.42-.12.63a8.37,8.37,0,0,1-.23.86c-.12.33-.25.66-.4,1a8.43,8.43,0,0,1-.66,1.12c-.12.16-.24.32-.37.47l-.36.4c-.18.18-.37.34-.56.5s-.37.28-.56.4a6.16,6.16,0,0,1-1,.53,6.88,6.88,0,0,1-1,.32c-.2.05-.4.08-.6.12l-.61.08c-.06,0-.12,0-.17,0h-.81s0,0-.06,0c-.22,0-.44,0-.66-.07l-.52-.08a5.39,5.39,0,0,1-1.13-.31c-.22-.08-.43-.17-.65-.27a8.19,8.19,0,0,1-1-.59,6,6,0,0,1-.57-.42,6.56,6.56,0,0,1-.67-.62h0v0l0,0c-.18-.19-.5-.56-.5-.57a1.11,1.11,0,0,1,.18.12l.14.13h0c.21.16.43.32.66.47a8.45,8.45,0,0,0,.89.49,10.23,10.23,0,0,0,1.2.46,6.39,6.39,0,0,0,.63.13c.18,0,.37.06.56.09a2.06,2.06,0,0,0,.26,0,7.94,7.94,0,0,0,.85,0c.24,0,.48,0,.72-.05a7.93,7.93,0,0,0,.85-.14,6.45,6.45,0,0,0,1.22-.4,6.71,6.71,0,0,0,1.3-.76,7.82,7.82,0,0,0,.9-.82,6.88,6.88,0,0,0,.58-.73,7.62,7.62,0,0,0,.64-1.11,8.49,8.49,0,0,0,.51-1.35q.1-.39.18-.78l.09-.58c0-.11,0-.21,0-.32.09-1.47,0-2.94,0-4.41s0-3,0-4.43v-.08l.15.13a5.81,5.81,0,0,0,.76.54,7.43,7.43,0,0,0,.73.4,9.58,9.58,0,0,0,1.35.51c.34.1.68.18,1,.25l.79.13.48.05h.32c.06,0,.06,0,.06-.07v-3.11h0c.1,0,.2,0,.29.05l.45,0,.19,0s0,0,0,0v4Z" style="fill:#455a64"></path><path d="M250,160.56h0c-.25,0-.51,0-.77,0a6.88,6.88,0,0,0-.9.1,8.24,8.24,0,0,0-1,.24c-.23.08-.46.17-.68.27a7.23,7.23,0,0,0-1,.55,6,6,0,0,0-.64.49,6.21,6.21,0,0,0-.59.56,6.33,6.33,0,0,0-.64.81,7.52,7.52,0,0,0-.62,1.06,7.86,7.86,0,0,0-.69,2.09c0,.2-.07.41-.09.61a7.84,7.84,0,0,0-.05,1.19,5.34,5.34,0,0,0,.05.69,7.62,7.62,0,0,0,.2,1.08,8.4,8.4,0,0,0,.38,1.1,7.48,7.48,0,0,0,.63,1.14,1.64,1.64,0,0,1,.16.26l-.16-.14a9.74,9.74,0,0,1-.74-.83,8.32,8.32,0,0,1-.6-.94,6.64,6.64,0,0,1-.54-1.29,5.82,5.82,0,0,1-.24-1,5.59,5.59,0,0,1-.08-.59,1,1,0,0,0,0-.25v-1a.06.06,0,0,0,0,0,5.25,5.25,0,0,1,0-.57,8.38,8.38,0,0,1,.23-1.13,6.8,6.8,0,0,1,.34-1,7.8,7.8,0,0,1,.82-1.5,6.8,6.8,0,0,1,.46-.6,5.67,5.67,0,0,1,.59-.61,6.51,6.51,0,0,1,1.15-.86,6.61,6.61,0,0,1,1.38-.62,6.15,6.15,0,0,1,1-.24l.58-.07a7.22,7.22,0,0,1,.93,0,5.83,5.83,0,0,1,.73.06l.24,0s.07,0,.07.07Z" style="fill:#5C26E3"></path><path d="M256.29,151.77h-3.1c-.07,0-.08,0-.08.09v16c0,.24,0,.49-.05.73a7,7,0,0,1-.17.91,1.69,1.69,0,0,1-.19.38,3.31,3.31,0,0,1-.66.83,3,3,0,0,1-.62.45,3.33,3.33,0,0,1-1,.36,2.35,2.35,0,0,1-.37.05,1.61,1.61,0,0,1-.38,0,3.19,3.19,0,0,1-1.26-.26,2.73,2.73,0,0,1-.81-.47,2.4,2.4,0,0,1-.65-.79l.15.08a3.63,3.63,0,0,0,.9.34,3.43,3.43,0,0,0,1.06.07,3.28,3.28,0,0,0,1.3-.36,3.38,3.38,0,0,0,.62-.42,3.6,3.6,0,0,0,.72-.84,2.14,2.14,0,0,0,.31-.84q.06-.32.09-.63a2.34,2.34,0,0,0,0-.38c0-.21,0-.43,0-.65V150.8s0-.05,0,0h3.91c.1,0,.11,0,.11.1a3.83,3.83,0,0,0,.08.83Z" style="fill:#5C26E3"></path><path d="M250.94,161.49V165c0,.09,0,.09-.09.07l-.27,0-.4,0a4.67,4.67,0,0,0-1.05.1,3.34,3.34,0,0,0-.93.34,3.12,3.12,0,0,0-.56.39,3,3,0,0,0-.69.87,3.74,3.74,0,0,0-.33.92l-.06.4a4.51,4.51,0,0,0,0,.52,2.89,2.89,0,0,0,.08.65c0,.05,0,.1,0,.15a5.74,5.74,0,0,0,.27.71h0a1.34,1.34,0,0,1-.28-.18,2.18,2.18,0,0,1-.28-.25,2.64,2.64,0,0,1-.57-.92,4.24,4.24,0,0,1-.17-.61,3.86,3.86,0,0,1-.06-.49,1.51,1.51,0,0,1,0-.3,4.1,4.1,0,0,1,.16-1,3.22,3.22,0,0,1,.49-1,2.94,2.94,0,0,1,.88-.8,3.76,3.76,0,0,1,1-.41l.48-.07a4.7,4.7,0,0,1,.75,0,2.29,2.29,0,0,1,.52.05c.07,0,.08,0,.08-.08v-3.38h0a.16.16,0,0,0,.1,0,5.36,5.36,0,0,1,.69.06l.13,0c.05,0,.05,0,.05.05Z" style="fill:#455a64"></path><path d="M258.4,155.56h0a.4.4,0,0,1-.15-.1,5.53,5.53,0,0,1-.64-.64,6,6,0,0,1-.75-1.18,6.7,6.7,0,0,1-.46-1.3c0-.17-.07-.33-.11-.5h0v0h.83s.05,0,.05,0a5.81,5.81,0,0,0,.05.72,7.77,7.77,0,0,0,.26,1.16,6.56,6.56,0,0,0,.37,1q.07.17.15.3h0a4.64,4.64,0,0,0,.38.58h0Z" style="fill:#263238"></path><path d="M261.86,156.8c0,.28,0,.57,0,.86h0a6.23,6.23,0,0,1-.62-.15,5.12,5.12,0,0,1-1-.4,5.59,5.59,0,0,1-.92-.6c-.15-.13-.29-.25-.43-.39l-.06-.07a3.05,3.05,0,0,1-.38-.49h0l.21.15,0,0a5.79,5.79,0,0,0,.81.45,3.83,3.83,0,0,0,.56.22,5.57,5.57,0,0,0,1.07.26,5.82,5.82,0,0,0,.73.08S261.86,156.77,261.86,156.8Z" style="fill:#5C26E3"></path></g><circle cx="344.76" cy="206.63" r="20.32" transform="translate(-52.53 145.64) rotate(-22.21)" style="fill:#263238"></circle><path d="M332.33,219c.53-1.92,1-3.7,1.53-5.47a1.92,1.92,0,0,0-.15-1.57,12.33,12.33,0,1,1,23.47-5.11,12.43,12.43,0,0,1-11.67,11.88,13.12,13.12,0,0,1-6.11-1.15,2,2,0,0,0-1.18-.09C336.31,217.92,334.41,218.43,332.33,219Zm3-2.91c1.22-.31,2.25-.61,3.29-.83a1.77,1.77,0,0,1,1.09.14,10.92,10.92,0,0,0,5,1.3,10.26,10.26,0,0,0,10.25-12,9.59,9.59,0,0,0-7.71-8,9.76,9.76,0,0,0-10.69,4c-2.57,3.52-2.64,7.31-.54,11.14a1.93,1.93,0,0,1,.15,1.21C335.93,214,335.62,215,335.32,216.06Z" style="fill:#fff"></path><path d="M339.4,201.57c.84-1.13,2-.9,2.55.34.23.49.28.65.51,1.21a1.51,1.51,0,0,1-.35,1.94c-.44.4-.4.74-.09,1.2a8.65,8.65,0,0,0,3.74,3.16.82.82,0,0,0,1.13-.26c1.08-1.29,1.1-1.28,2.63-.56l.53.25a1.43,1.43,0,0,1,.39,2.55,3.43,3.43,0,0,1-3.45.84,12.49,12.49,0,0,1-7.48-5.69,4.72,4.72,0,0,1-.94-2.78A4.15,4.15,0,0,1,339.4,201.57Z" style="fill:#fff"></path><g id="freepik--xsrjP0--inject-38"><path d="M315.25,247.43c-.74-.46-1.39-1.13-2.38-1-.38,0-.3-.27-.3-.48,0-3.73,0-7.45-.05-11.18,0-.27,0-.49.31-.64,2.84-1.44,4.07-4.27,5.8-6.69a11.12,11.12,0,0,0,2-8.46c-.12-.84.27-1.22,1-1.39a1.87,1.87,0,0,1,2.13.66,15,15,0,0,1,1.64,4.88,17.58,17.58,0,0,1-.5,4.19c-.13,1-.36,2-.55,3.07.25.18.54.09.8.09l9.45,0c1.32,0,2,.37,2.16,1.25a2.52,2.52,0,0,1-1.36,2.74c-.23.12-.66,0-.69.38s.41.34.63.49c1.14.77.94,2.39-.38,3.32-.32.23-.93.13-.94.59s.57.37.83.63c.92.9.47,2.6-.9,3.29a4.66,4.66,0,0,0-.56.22c-.15.1-.31.22,0,.43,1.36,1,1.34,2.33,0,3.32l-.41.3a2.68,2.68,0,0,1-1.65.37l-14.81,0A1.73,1.73,0,0,1,315.25,247.43Z" style="fill:#455a64;fill-rule:evenodd"></path><path d="M301.19,240.91c0-2.37,0-4.74,0-7.1,0-.49,0-.72.63-.72,2.89,0,5.77,0,8.66,0,.57,0,.66.18.66.69q0,7.14.05,14.29c0,.6-.16.78-.77.77-2.8,0-5.6,0-8.4,0-.7,0-.8-.23-.79-.84C301.23,245.64,301.2,243.28,301.19,240.91Z" style="fill:#455a64;fill-rule:evenodd"></path></g><path d="M300.89,273.06H299a2.09,2.09,0,0,1-2.1-2.1,2.11,2.11,0,0,1,2.1-2.1h2.59l1.21-7h-2.35a2.1,2.1,0,0,1,0-4.2h3.08l.8-4.81a2.05,2.05,0,0,1,2.1-1.73,2.15,2.15,0,0,1,2.1,2.46l-.72,4.08h6.33l.81-4.81a2.07,2.07,0,0,1,2.14-1.73,2.13,2.13,0,0,1,2.06,2.46l-.69,4.08h1.86a2.11,2.11,0,0,1,2.1,2.1,2.14,2.14,0,0,1-2.1,2.1h-2.58l-1.21,7h2.3A2.09,2.09,0,0,1,321,271a2.11,2.11,0,0,1-2.1,2.1h-3l-.85,5a2.09,2.09,0,0,1-2.1,1.74,2.13,2.13,0,0,1-2.1-2.46l.77-4.24h-6.34l-.85,5a2.11,2.11,0,0,1-2.13,1.74,2.06,2.06,0,0,1-2.06-2.46Zm11.35-4.2,1.21-7h-6.3l-1.21,7Z" style="fill:#263238"></path></g><g id="freepik--Sparkles--inject-38"><polygon points="343.93 269.77 337.95 270.88 336.62 277.17 335.28 270.88 329.3 269.77 335.25 268.32 336.62 262.37 337.98 268.32 343.93 269.77" style="fill:#5C26E3"></polygon><polygon points="200.73 201.16 194.75 202.26 193.42 208.56 192.08 202.26 186.1 201.15 192.06 199.7 193.42 193.75 194.78 199.7 200.73 201.16" style="fill:#5C26E3"></polygon><polygon points="322.38 73.16 316.4 74.26 315.06 80.56 313.73 74.26 307.75 73.15 313.7 71.7 315.06 65.75 316.43 71.7 322.38 73.16" style="fill:#5C26E3"></polygon><polygon points="200.33 152.94 196.99 153.56 196.24 157.07 195.49 153.56 192.15 152.94 195.48 152.12 196.24 148.8 197 152.12 200.33 152.94" style="fill:#5C26E3"></polygon><polygon points="220.76 261.96 217.42 262.58 216.67 266.1 215.93 262.58 212.59 261.96 215.91 261.15 216.67 257.82 217.43 261.15 220.76 261.96" style="fill:#5C26E3"></polygon><polygon points="389.43 197.48 386.09 198.1 385.34 201.62 384.6 198.1 381.26 197.48 384.58 196.66 385.34 193.34 386.11 196.66 389.43 197.48" style="fill:#5C26E3"></polygon><polygon points="352.11 258.23 348.76 258.85 348.02 262.37 347.27 258.85 343.93 258.23 347.26 257.42 348.02 254.09 348.78 257.42 352.11 258.23" style="fill:#5C26E3"></polygon><polygon points="210.16 215.59 206.82 216.21 206.07 219.73 205.33 216.21 201.99 215.59 205.31 214.78 206.07 211.45 206.83 214.78 210.16 215.59" style="fill:#5C26E3"></polygon><polygon points="304.04 61.98 300.7 62.59 299.95 66.11 299.21 62.59 295.87 61.98 299.19 61.16 299.95 57.84 300.71 61.16 304.04 61.98" style="fill:#5C26E3"></polygon><polygon points="220.63 99.81 217.29 100.42 216.55 103.94 215.8 100.42 212.46 99.8 215.78 98.99 216.55 95.67 217.31 98.99 220.63 99.81" style="fill:#5C26E3"></polygon><path d="M356.44,271.47a1,1,0,0,0,0,1.94A1,1,0,0,0,356.44,271.47Z" style="fill:#5C26E3"></path><path d="M225.15,87a1,1,0,0,0,0,1.93A1,1,0,0,0,225.15,87Z" style="fill:#5C26E3"></path><path d="M363.77,115a1,1,0,0,0,0,1.94A1,1,0,0,0,363.77,115Z" style="fill:#5C26E3"></path><path d="M404.93,190.78a1,1,0,0,0,0,1.93A1,1,0,0,0,404.93,190.78Z" style="fill:#5C26E3"></path><path d="M231.56,263.72a1,1,0,0,0,0,1.93A1,1,0,0,0,231.56,263.72Z" style="fill:#5C26E3"></path><path d="M391.91,185.15a.69.69,0,0,0,0,1.37A.69.69,0,0,0,391.91,185.15Z" style="fill:#5C26E3"></path><path d="M227.34,276.92a.69.69,0,0,0,0,1.37A.69.69,0,0,0,227.34,276.92Z" style="fill:#5C26E3"></path><path d="M185.55,140.66a.69.69,0,0,0,0,1.37A.69.69,0,0,0,185.55,140.66Z" style="fill:#5C26E3"></path><path d="M363.77,104.55a1.86,1.86,0,0,0,0,3.71A1.86,1.86,0,0,0,363.77,104.55Z" style="fill:#5C26E3"></path><path d="M178.25,155.23a1.86,1.86,0,0,0,0,3.71A1.86,1.86,0,0,0,178.25,155.23Z" style="fill:#5C26E3"></path></g></svg>