<svg xmlns="http://www.w3.org/2000/svg" width="42" height="42" viewBox="0 0 42 42"><g fill="none" fill-rule="evenodd"><path fill="#F7F9FC" d="M6.648 6.06c8.064-8.066 21.14-8.066 29.204 0 8.065 8.064 8.065 21.139 0 29.204-8.064 8.064-21.14 8.064-29.204 0-8.065-8.065-8.065-21.14 0-29.205"/><path fill="#C7DEF9" d="M33.372 32.404H17.896a.754.754 0 0 1-.756-.754v-7.135c0-.417.338-.756.756-.756h15.476c.416 0 .755.34.755.756v7.135a.755.755 0 0 1-.755.754"/><path fill="#95BCE9" d="M20.063 24.622h1.55v-.891h-1.55v.891zm3.1 0h1.549v-.891h-1.55v.891zm3.098 0h1.55v-.891h-1.55v.891zm3.1 0h1.55v-.891h-1.55v.891zm3.897.369a.503.503 0 0 0-.484-.369h-.314v-.891h.314c.627 0 1.18.422 1.344 1.026l-.86.234zm-15.26.182h-.89v-.049c0-.768.624-1.393 1.392-1.393l.013.891a.505.505 0 0 0-.514.502v.049zm15.278 5.848h.89v.048c0 .768-.624 1.393-1.392 1.393l-.013-.891c.29 0 .515-.225.515-.502v-.048zm-15.26.181c.06.217.258.369.484.369h.315v.891H18.5a1.396 1.396 0 0 1-1.343-1.025l.86-.235zm2.348 1.26h1.55v-.891h-1.55zm3.099 0h1.55v-.891h-1.55zm3.1 0h1.549v-.891h-1.55zm3.099 0h1.55v-.891h-1.55zm3.601-2.526h.89v-1.299h-.89zm-16.141 0h.89v-1.299h-.89zm16.141-2.343h.89v-1.299h-.89zm-16.141 0h.89v-1.299h-.89z"/><path fill="#C7DEF9" d="M23.933 16.736H8.901a.568.568 0 0 1-.568-.568V9.429c0-.314.255-.568.568-.568h15.032c.313 0 .568.254.568.568v6.739a.568.568 0 0 1-.568.568"/><path fill="#95BCE9" d="M26.05 23.735h-.759v-3.027c0-.12-.086-.217-.192-.217h-8.107a.964.964 0 0 1-.95-.976v-2.731h.758v2.731c0 .12.086.218.192.218h8.107c.525 0 .95.437.95.975v3.027z"/><path fill="#95BCE9" d="M15.2 17.959h2.435v-2.436H15.2zm9.193 7.332h2.435v-2.436h-2.435z"/></g></svg>