<svg xmlns="http://www.w3.org/2000/svg" width="50" height="50" fill-rule="evenodd" xmlns:v="https://vecta.io/nano"><path fill="#ddfbff" d="M7.32 7.32c9.758-9.758 25.58-9.758 35.337 0s9.758 25.58 0 35.336-25.58 9.758-35.337 0-9.758-25.578 0-35.336"/><path fill="#2ed8fd" d="M23.474 11h17.18c.328 0 .594.27.594.6v10.893c0 .332-.266.6-.594.6H35.81l-4.25 3.026c-.394.28-.936-.005-.936-.49v-2.534h-7.147c-.328 0-.594-.27-.594-.6V11.6c0-.332.266-.6.594-.6"/><path fill="#fff" d="M30.16 13.8v6.72l4.48-3.386z"/><path fill="#2ed8fd" d="M10.594 25h17.18c.328 0 .594.27.594.6v10.893c0 .332-.266.6-.594.6H22.93l-4.25 3.026c-.394.28-.936-.005-.936-.49v-2.534h-7.147c-.328 0-.594-.27-.594-.6V25.6c0-.332.266-.6.594-.6"/><path d="M13.584 29.928h11.648v-1.792H13.584zm0 3.136h11.648v-1.792H13.584z" fill="#fff"/></svg>