<svg width="1062" height="523" xmlns="http://www.w3.org/2000/svg"><path d="M272.774 372.52v8.337h-8.406v-8.337h8.406zm10.093 0v8.337h-8.406v-8.337h8.406zm10.085 0v8.337h-8.406v-8.337h8.406zm10.096 0v8.337h-8.406v-8.337h8.406zm10.082 0v8.337h-8.406v-8.337h8.406zm10.085 0v8.337h-8.406v-8.337h8.406zm10.096 0v8.337h-8.406v-8.337h8.406zm10.085 0v8.337h-8.406v-8.337h8.406zm10.083 0v8.337h-8.406v-8.337h8.406zm10.096 0v8.337h-8.406v-8.337h8.406zm10.085 0v8.337h-8.406v-8.337h8.406zm10.096 0v8.337h-8.406v-8.337h8.406zm161.404 0v8.337h-8.406v-8.337h8.406zm10.094 0v8.337h-8.406v-8.337h8.406zm10.085 0v8.337h-8.406v-8.337h8.406zm10.096 0v8.337h-8.406v-8.337h8.406zm10.085 0v8.337h-8.406v-8.337h8.406zm10.082 0v8.337h-8.406v-8.337h8.406zm10.096 0v8.337h-8.403v-8.337h8.403zm10.085 0v8.337h-8.406v-8.337h8.406zm0-10v8.337h-8.406v-8.337h8.406zm221.943 0v8.337h-8.406v-8.337h8.406zm10.085 0v8.337h-8.406v-8.337h8.406zm10.096 0v8.337H849.5v-8.337h8.406zm10.085 0v8.337h-8.404v-8.337h8.404zm10.093 0v8.337h-8.406v-8.337h8.406zm40.348 0v8.337h-8.403v-8.337h8.403zm10.086 0v8.337h-8.407v-8.337h8.407zm50.444 0v8.337h-8.406v-8.337h8.406zm-706.19 0v8.337h-8.405v-8.337h8.406zm10.094 0v8.337h-8.406v-8.337h8.406zm10.085 0v8.337h-8.406v-8.337h8.406zm10.096 0v8.337h-8.406v-8.337h8.406zm10.082 0v8.337h-8.406v-8.337h8.406zm10.085 0v8.337h-8.406v-8.337h8.406zm10.096 0v8.337h-8.406v-8.337h8.406zm10.085 0v8.337h-8.406v-8.337h8.406zm10.083 0v8.337h-8.406v-8.337h8.406zm10.096 0v8.337h-8.406v-8.337h8.406zm10.085 0v8.337h-8.406v-8.337h8.406zm10.096 0v8.337h-8.406v-8.337h8.406zm10.082 0v8.337h-8.406v-8.337h8.406zm151.322 0v8.337h-8.406v-8.337h8.406zm10.094 0v8.337h-8.406v-8.337h8.406zm10.085 0v8.337h-8.406v-8.337h8.406zm10.096 0v8.337h-8.406v-8.337h8.406zm10.085 0v8.337h-8.406v-8.337h8.406zm10.082 0v8.337h-8.406v-8.337h8.406zm10.096 0v8.337h-8.403v-8.337h8.403zm0-10.003v8.332h-8.403v-8.332h8.403zm10.085 0v8.332h-8.406v-8.332h8.406zm201.764 0v8.332h-8.406v-8.332h8.406zm50.445 0v8.332h-8.404v-8.332h8.404zm50.441 0v8.332h-8.403v-8.332h8.403zm10.086 0v8.332h-8.407v-8.332h8.407zm10.096 0v8.332h-8.406v-8.332h8.406zm-675.926 0v8.332h-8.406v-8.332h8.406zm10.085 0v8.332h-8.406v-8.332h8.406zm10.093 0v8.332h-8.406v-8.332h8.406zm10.085 0v8.332h-8.406v-8.332h8.406zm10.096 0v8.332h-8.406v-8.332h8.406zm10.082 0v8.332h-8.406v-8.332h8.406zm10.085 0v8.332h-8.406v-8.332h8.406zm10.096 0v8.332h-8.406v-8.332h8.406zm10.085 0v8.332h-8.406v-8.332h8.406zm10.083 0v8.332h-8.406v-8.332h8.406zm10.096 0v8.332h-8.406v-8.332h8.406zm10.085 0v8.332h-8.406v-8.332h8.406zm10.096 0v8.332h-8.406v-8.332h8.406zm10.082 0v8.332h-8.406v-8.332h8.406zm151.322 0v8.332h-8.406v-8.332h8.406zm10.094 0v8.332h-8.406v-8.332h8.406zm10.085 0v8.332h-8.406v-8.332h8.406zm10.096 0v8.332h-8.406v-8.332h8.406zm10.085 0v8.332h-8.406v-8.332h8.406zm10.082 0v8.332h-8.406v-8.332h8.406zm242.124-10v8.332h-8.406v-8.332h8.406zm10.085 0v8.332h-8.406v-8.332h8.406zm20.18 0v8.332h-8.403v-8.332h8.404zm30.264 0v8.332h-8.406v-8.332h8.406zm-635.566 0v8.332h-8.406v-8.332h8.406zm10.085 0v8.332h-8.406v-8.332h8.406zm10.093 0v8.332h-8.406v-8.332h8.406zm10.085 0v8.332h-8.406v-8.332h8.406zm10.096 0v8.332h-8.406v-8.332h8.406zm10.082 0v8.332h-8.406v-8.332h8.406zm10.085 0v8.332h-8.406v-8.332h8.406zm10.096 0v8.332h-8.406v-8.332h8.406zm10.085 0v8.332h-8.406v-8.332h8.406zm10.083 0v8.332h-8.406v-8.332h8.406zm10.096 0v8.332h-8.406v-8.332h8.406zm171.5 0v8.332h-8.406v-8.332h8.406zm10.085 0v8.332h-8.406v-8.332h8.406zm10.094 0v8.332h-8.406v-8.332h8.406zm10.085 0v8.332h-8.406v-8.332h8.406zm10.096 0v8.332h-8.406v-8.332h8.406zm10.085 0v8.332h-8.406v-8.332h8.406zm10.082 0v8.332h-8.406v-8.332h8.406zm10.096 0v8.332h-8.403v-8.332h8.403zm10.085 0v8.332h-8.406v-8.332h8.406zm10.085 0v8.332h-8.406v-8.332h8.406zm181.594 0v8.332h-8.406v-8.332h8.406zM615.783 332.51v8.337h-8.406v-8.337h8.406zm-20.18 0v8.337h-8.407v-8.337h8.406zm10.095 0v8.337h-8.403v-8.337h8.403zm-262.302 0v8.337h-8.406v-8.337h8.406zm10.083 0v8.337h-8.406v-8.337h8.406zm181.596 0v8.337h-8.406v-8.337h8.406zm-262.301 0v8.337h-8.406v-8.337h8.406zm10.093 0v8.337h-8.406v-8.337h8.406zm10.085 0v8.337h-8.406v-8.337h8.406zm10.096 0v8.337h-8.406v-8.337h8.406zm10.082 0v8.337h-8.406v-8.337h8.406zm10.085 0v8.337h-8.406v-8.337h8.406zm10.096 0v8.337h-8.406v-8.337h8.406zm292.557 0v8.337h-8.406v-8.337h8.406zm10.094 0v8.337h-8.406v-8.337h8.406zm161.415 0v8.337h-8.406v-8.337h8.406zm10.085 0v8.337h-8.406v-8.337h8.406zm30.264 0v8.337h-8.406v-8.337h8.406zm10.085 0v8.337h-8.406v-8.337h8.406zm-302.65 0v8.337h-8.407v-8.337h8.406zm10.093 0v8.337h-8.406v-8.337h8.406zm10.085 0v8.337h-8.406v-8.337h8.406zm10.096 0v8.337h-8.406v-8.337h8.406zm10.085 0v8.337h-8.406v-8.337h8.406zm0-10v8.337h-8.406v-8.337h8.406zm10.082 0v8.337h-8.406v-8.337h8.406zm10.096 0v8.337h-8.403v-8.337h8.403zm40.349 0v8.337h-8.404v-8.337h8.404zm141.237 0v8.337h-8.403v-8.337h8.403zm70.623 0v8.337H849.5v-8.337h8.406zm-242.124 0v8.337h-8.406v-8.337h8.406zm232.028 0v8.337h-8.406v-8.337h8.406zm-221.943 0v8.337h-8.406v-8.337h8.406zm10.094 0v8.337h-8.406v-8.337h8.406zm171.5 0v8.337h-8.406v-8.337h8.406zm-312.735 0v8.337h-8.406v-8.337h8.406zm30.263 0v8.337h-8.406v-8.337h8.406zm10.085 0v8.337h-8.406v-8.337h8.406zm10.085 0v8.337h-8.406v-8.337h8.406zm10.094 0v8.337h-8.406v-8.337h8.406zm10.085 0v8.337h-8.406v-8.337h8.406zm10.096 0v8.337h-8.406v-8.337h8.406zm-292.568 0v8.337h-8.406v-8.337h8.406zm10.085 0v8.337h-8.406v-8.337h8.406zm10.096 0v8.337h-8.406v-8.337h8.406zm10.082 0v8.337h-8.406v-8.337h8.406zm10.085 0v8.337h-8.406v-8.337h8.406zm10.096 0v8.337h-8.406v-8.337h8.406zm10.085 0v8.337h-8.406v-8.337h8.406zm131.15 0v8.337h-8.406v-8.337h8.406zm10.085 0v8.337h-8.406v-8.337h8.406zm-211.857 0v8.337h-8.406v-8.337h8.406zm20.178-9.992v8.332h-8.406v-8.332h8.406zm-10.085 0v8.332h-8.406v-8.332h8.406zm363.18 0v8.332h-8.404v-8.332h8.404zm-141.235 0v8.332h-8.406v-8.332h8.406zm10.082 0v8.332h-8.403v-8.332h8.403zm10.096 0v8.332h-8.406v-8.332h8.406zm10.085 0v8.332h-8.406v-8.332h8.406zm10.085 0v8.332h-8.406v-8.332h8.406zm10.094 0v8.332h-8.406v-8.332h8.406zm10.085 0v8.332h-8.406v-8.332h8.406zm10.096 0v8.332h-8.406v-8.332h8.406zm10.085 0v8.332h-8.406v-8.332h8.406zm-322.831 0v8.332h-8.406v-8.332h8.406zm10.085 0v8.332h-8.406v-8.332h8.406zm605.311 0v8.332h-8.406v-8.332h8.406zm-564.955 0v8.332h-8.406v-8.332h8.406zm10.085 0v8.332h-8.406v-8.332h8.406zm141.238 0v8.332h-8.404v-8.332h8.404zm10.093 0v8.332h-8.406v-8.332h8.406zm322.831 0v8.332h-8.406v-8.332h8.406zm-312.746 0v8.332h-8.406v-8.332h8.406zm10.096 0v8.332h-8.406v-8.332h8.406zm121.056 0v8.332h-8.406v-8.332h8.406zm10.085 0v8.332h-8.406v-8.332h8.406zm110.972 0v8.332h-8.404v-8.332h8.404zm-433.792 0v8.332h-8.406v-8.332h8.406zm514.5 0v8.332h-8.407v-8.332h8.406zm-221.946 0v8.332h-8.406v-8.332h8.406zm10.096 0v8.332h-8.403v-8.332h8.403zm30.264 0v8.332h-8.406v-8.332h8.406zm-171.51-10.01v8.331h-8.403v-8.332h8.404zm10.094 0v8.331h-8.406v-8.332h8.406zm141.237 0v8.331h-8.406v-8.332h8.406zm-70.623 0v8.331h-8.406v-8.332h8.406zm-20.17 0v8.331h-8.406v-8.332h8.406zm131.142 0v8.331h-8.406v-8.332h8.406zm80.708 0v8.331h-8.404v-8.332h8.404zm60.537 0v8.331h-8.406v-8.332h8.406zm20.17 0v8.331h-8.406v-8.332h8.406zm-322.82 0v8.331h-8.406v-8.332h8.406zm10.085 0v8.331h-8.406v-8.332h8.406zm10.082 0v8.331h-8.403v-8.332h8.403zm50.445 0v8.331h-8.406v-8.332h8.406zm10.096 0v8.331h-8.406v-8.332h8.406zm20.167 0v8.331h-8.406v-8.332h8.406zm-40.348 0v8.331h-8.406v-8.332h8.406zm-20.179 0v8.331h-8.406v-8.332h8.406zm-50.444 0v8.331h-8.406v-8.332h8.406zm393.454 0v8.331h-8.406v-8.332h8.406zm-423.717 0v8.331h-8.406v-8.332h8.406zm151.33 0v8.331h-8.403v-8.332h8.403zm221.943 0v8.331h-8.404v-8.332h8.404zm-242.121 0v8.331h-8.406v-8.332h8.406zm282.472 0v8.331h-8.404v-8.332h8.404zm-242.124 0v8.331h-8.406v-8.332h8.406zm-373.264 0v8.331h-8.406v-8.332h8.406zm221.942-9.998v8.337h-8.406v-8.337h8.406zm252.208 0v8.337h-8.406v-8.337h8.406zm-272.386 0v8.337h-8.406v-8.337h8.406zm191.679 0v8.337h-8.404v-8.337h8.404zm-181.594 0v8.337h-8.404v-8.337h8.404zm141.245 0v8.337h-8.403v-8.337h8.403zm-100.886 0v8.337h-8.406v-8.337h8.406zm60.527 0v8.337h-8.406v-8.337h8.406zm50.444 0v8.337h-8.406v-8.337h8.406zm-373.275 0v8.337h-8.406v-8.337h8.406zm332.927 0v8.337h-8.406v-8.337h8.406zm221.942 0v8.337h-8.406v-8.337h8.406zm-272.387 0v8.337h-8.406v-8.337h8.406zm131.142 0v8.337h-8.406v-8.337h8.406zm-171.501 0v8.337h-8.406v-8.337h8.406zm252.209 0v8.337h-8.404v-8.337h8.404zm-484.236 0v8.337h-8.406v-8.337h8.406zm383.358 0v8.337h-8.406v-8.337h8.406zm-50.442 0v8.337h-8.406v-8.337h8.406zm-90.793 0v8.337h-8.406v-8.337h8.406zm100.875 0v8.337h-8.406v-8.337h8.406zm-80.708 0v8.337h-8.403v-8.337h8.403zm302.653 0v8.337h-8.406v-8.337h8.406zm-282.472 0v8.337h-8.406v-8.337h8.406zm292.566 0v8.337h-8.404v-8.337h8.404zm-595.219 0v8.337h-8.406v-8.337h8.406zm312.738 0v8.337h-8.406v-8.337h8.406zm262.302 0v8.337h-8.406v-8.337h8.406zm-252.208 0v8.337h-8.406v-8.337h8.406zm-272.387-9.995v8.332h-8.406v-8.332h8.406zm504.417 0v8.332h-8.403v-8.332h8.403zm-252.209 0v8.332h-8.406v-8.332h8.406zm332.917 0v8.332h-8.404v-8.332h8.404zm-655.748 0v8.332h-8.406v-8.332h8.406zm30.264 0v8.332h-8.406v-8.332h8.406zm-40.349 0v8.332h-8.406v-8.332h8.406zm605.303 0v8.332h-8.406v-8.332h8.406zm-575.04 0v8.332h-8.406v-8.332h8.406zm322.832 0v8.332h-8.406v-8.332h8.406zm-282.48 0v8.332h-8.406v-8.332h8.406zm221.953 0v8.332h-8.406v-8.332h8.406zm-201.775 0v8.332h-8.406v-8.332h8.406zm282.483 0v8.332h-8.406v-8.332h8.406zm-110.982 0v8.332h-8.404v-8.332h8.404zm161.415 0v8.332h-8.406v-8.332h8.406zm-141.237 0v8.332h-8.406v-8.332h8.406zm110.971 0v8.332h-8.406v-8.332h8.406zm151.334 0v8.332h-8.407v-8.332h8.407zm-20.182 0v8.332h-8.406v-8.332h8.406zm10.086 0v8.332h-8.404v-8.332h8.404zm-121.057 0v8.332h-8.406v-8.332h8.406zm20.179 0v8.332h-8.406v-8.332h8.406zm10.085 0v8.332h-8.404v-8.332h8.404zm-131.153 0v8.332h-8.403v-8.332h8.403zm30.266 0v8.332h-8.406v-8.332h8.406zm40.36 0v8.332h-8.406v-8.332h8.406zm-282.472 0v8.332h-8.406v-8.332h8.406zm171.498 0v8.332h-8.406v-8.332h8.406zm191.682 0v8.332h-8.406v-8.332h8.406zm131.15 0v8.332h-8.407v-8.332h8.406zm20.17 0v8.332h-8.407v-8.332h8.406zm-161.416 0v8.332h-8.406v-8.332h8.406zm-90.793 0v8.332h-8.406v-8.332h8.406zm40.36 0v8.332h-8.404v-8.332h8.403zm-80.709 0v8.332h-8.406v-8.332h8.406zm302.65 0v8.332h-8.403v-8.332h8.404zm-322.828 0v8.332h-8.406v-8.332h8.406zm40.348-10.008v8.332h-8.406v-8.332h8.406zm-30.266 0v8.332h-8.403v-8.332h8.403zm282.483 0v8.332h-8.406v-8.332h8.406zm-221.942 0v8.332h-8.406v-8.332h8.406zm242.112 0v8.332h-8.406v-8.332h8.406zm-343.001 0v8.332h-8.406v-8.332h8.406zm262.294 0v8.332h-8.404v-8.332h8.404zm-80.708 0v8.332h-8.406v-8.332h8.406zm90.804 0v8.332h-8.407v-8.332h8.407zm60.526 0v8.332h-8.406v-8.332h8.406zm-161.415 0v8.332h-8.404v-8.332h8.404zm181.594 0v8.332h-8.404v-8.332h8.404zm-232.039 0v8.332h-8.406v-8.332h8.406zm-342.998 0v8.332h-8.406v-8.332h8.406zm373.264 0v8.332h-8.406v-8.332h8.406zm-131.141 0v8.332h-8.406v-8.332h8.406zm342.999 0v8.332h-8.406v-8.332h8.406zm-383.358 0v8.332h-8.406v-8.332h8.406zm-252.209 0v8.332h-8.406v-8.332h8.406zm332.916 0v8.332h-8.406v-8.332h8.406zm-343 0v8.332h-8.407v-8.332h8.406zm20.17 0v8.332h-8.407v-8.332h8.406zm292.567 0v8.332h-8.406v-8.332h8.406zm20.178 0v8.332h-8.406v-8.332h8.406zm-252.216 0v8.332h-8.406v-8.332h8.406zm292.565 0v8.332h-8.406v-8.332h8.406zm20.18 0v8.332h-8.405v-8.332h8.406zm20.18 0v8.332h-8.404v-8.332h8.403zm-141.246 0v8.332h-8.404v-8.332h8.404zm211.857 0v8.332h-8.406v-8.332h8.406zm80.708 0v8.332h-8.406v-8.332h8.406zm-30.264 0v8.332h-8.406v-8.332h8.406zm40.36 0v8.332h-8.406v-8.332h8.406zm-50.445 0v8.332h-8.406v-8.332h8.406zm60.53 0v8.332h-8.403v-8.332h8.403zm-110.971 0v8.332h-8.406v-8.332h8.406zm121.056 0v8.332h-8.403v-8.332h8.403zm-232.03 0v8.332h-8.406v-8.332h8.406zm-70.623 0v8.332h-8.406v-8.332h8.406zm151.33 0v8.332h-8.405v-8.332h8.406zm161.416-10v8.338h-8.406v-8.338h8.406zm-312.746 0v8.338h-8.406v-8.338h8.406zm232.038 0v8.338h-8.406v-8.338h8.406zm-171.509 0v8.338h-8.406v-8.338h8.406zm221.954 0v8.338h-8.406v-8.338h8.406zm70.612 0v8.338h-8.406v-8.338h8.406zm-30.264 0v8.338h-8.406v-8.338h8.406zm40.349 0v8.338h-8.406v-8.338h8.406zm-141.235 0v8.338h-8.406v-8.338h8.406zm151.33 0v8.338h-8.405v-8.338h8.406zm-70.622 0v8.338h-8.403v-8.338h8.403zm80.708 0v8.338h-8.404v-8.338h8.404zm-121.056 0v8.338h-8.407v-8.338h8.407zm-575.04 0v8.338h-8.406v-8.338h8.406zm464.066 0v8.338h-8.406v-8.338h8.406zm-171.51 0v8.338h-8.403v-8.338h8.404zm30.275 0v8.338h-8.406v-8.338h8.406zm322.82 0v8.338h-8.406v-8.338h8.406zm-625.473 0v8.338h-8.406v-8.338h8.406zm10.085 0v8.338h-8.406v-8.338h8.406zm272.387 0v8.338h-8.406v-8.338h8.406zm60.53 0v8.338h-8.407v-8.338h8.406zm40.359 0v8.338h-8.406v-8.338h8.406zm121.056 0v8.338h-8.403v-8.338h8.403zm-433.802 0v8.338h-8.406v-8.338h8.406zm-50.445 0v8.338h-8.406v-8.338h8.406zm393.454 0v8.338h-8.403v-8.338h8.403zm121.056 0v8.338h-8.406v-8.338h8.406zm100.887 0v8.338h-8.404v-8.338h8.404zm-90.801 0v8.338h-8.404v-8.338h8.404zm-181.586 0v8.338h-8.406v-8.338h8.406zm201.764 0v8.338h-8.406v-8.338h8.406zm-191.68 0v8.338h-8.405v-8.338h8.406zm211.86 0v8.338h-8.402v-8.338h8.403zm-595.217 0v8.338h-8.406v-8.338h8.406zm322.831 0v8.338h-8.406v-8.338h8.406zm121.056 0v8.338h-8.406v-8.338h8.406zm-110.974 0v8.338h-8.403v-8.338h8.403zm131.153 0v8.338h-8.404v-8.338h8.404zm-121.057 0v8.338h-8.406v-8.338h8.406zm161.416 0v8.338H678v-8.338h8.406zm-100.886 0v8.338h-8.406v-8.338h8.406zm30.263 0v8.338h-8.406v-8.338h8.406zm-20.18 0v8.338h-8.407v-8.338h8.406zm60.529 0v8.338h-8.406v-8.338h8.406zm-484.236-9.994v8.332h-8.406v-8.332h8.406zm453.972 0v8.332h-8.406v-8.332h8.406zm151.33 0v8.332h-8.402v-8.332h8.403zm-10.084 0v8.332h-8.406v-8.332h8.406zm50.433 0v8.332h-8.406v-8.332h8.406zm-181.585 0v8.332h-8.406v-8.332h8.406zm191.679 0v8.332h-8.404v-8.332h8.404zm-70.623 0v8.332h-8.406v-8.332h8.406zm-575.037 0v8.332h-8.406v-8.332h8.406zm655.745 0v8.332h-8.406v-8.332h8.406zm10.085 0v8.332h-8.406v-8.332h8.406zm-141.235 0v8.332h-8.406v-8.332h8.406zm-514.502 0v8.332h-8.406v-8.332h8.406zm363.18 0v8.332h-8.406v-8.332h8.406zm110.974 0v8.332h-8.406v-8.332h8.406zm191.679 0v8.332H849.5v-8.332h8.406zm-60.53 0v8.332h-8.406v-8.332h8.406zm-595.218 0v8.332h-8.406v-8.332h8.406zm312.735 0v8.332h-8.403v-8.332h8.403zm131.153 0v8.332h-8.404v-8.332h8.404zm-151.32 0v8.332h-8.406v-8.332h8.406zm312.735 0v8.332h-8.406v-8.332h8.406zm-272.387 0v8.332h-8.406v-8.332h8.406zm121.057 0v8.332h-8.406v-8.332h8.406zm-80.697 0v8.332h-8.406v-8.332h8.406zm-363.19 0v8.332h-8.407v-8.332h8.406zm272.386 0v8.332h-8.406v-8.332h8.406zm211.86 0v8.332h-8.403v-8.332h8.403zm-100.889 0v8.332h-8.406v-8.332h8.406zm-70.612 0v8.332h-8.406v-8.332h8.406zm-50.444 0v8.332h-8.406v-8.332h8.406zm30.266 0v8.332h-8.406v-8.332h8.406zm-242.123 0v8.332h-8.406v-8.332h8.406zm453.98 0v8.332h-8.406v-8.332h8.406zm-110.97 0v8.332h-8.404v-8.332h8.403zm-60.539 0v8.332h-8.406v-8.332h8.406zm181.594 0v8.332h-8.406v-8.332h8.406zm-161.415 0v8.332h-8.406v-8.332h8.406zm50.444 0v8.332h-8.406v-8.332h8.406zm-30.263 0v8.332h-8.406v-8.332h8.406zm161.416 0v8.332h-8.407v-8.332h8.407zm-10.096 0v8.332h-8.404v-8.332h8.404zm50.444 0v8.332h-8.403v-8.332h8.403zm-100.878 0v8.332H678v-8.332h8.406zm-10.096 0v8.332h-8.406v-8.332h8.406zm40.36-10.011v8.334h-8.407v-8.334h8.406zm-100.887 0v8.334h-8.406v-8.334h8.406zm-443.887 0v8.334h-8.406v-8.334h8.406zm20.178 0v8.334h-8.406v-8.334h8.406zm20.17 0v8.334h-8.406v-8.334h8.406zm20.178 0v8.334h-8.406v-8.334h8.406zm20.182 0v8.334h-8.406v-8.334h8.406zm232.027 0v8.334h-8.406v-8.334h8.406zm40.36 0v8.334h-8.407v-8.334h8.406zm262.293 0v8.334h-8.403v-8.334h8.403zm-211.85 0v8.334h-8.405v-8.334h8.406zm-70.622 0v8.334h-8.406v-8.334h8.406zm221.942 0v8.334h-8.406v-8.334h8.406zm50.445 0v8.334h-8.403v-8.334h8.403zm-121.067 0v8.334h-8.406v-8.334h8.406zm110.982 0v8.334h-8.406v-8.334h8.406zm-232.039 0v8.334h-8.406v-8.334h8.406zm302.65 0v8.334h-8.405v-8.334h8.406zm-100.885 0v8.334h-8.404v-8.334h8.404zm110.97 0v8.334h-8.405v-8.334h8.406zm-221.942 0v8.334h-8.406v-8.334h8.406zm20.179 0v8.334h-8.404v-8.334h8.404zm-131.153 0v8.334h-8.403v-8.334h8.403zm151.334 0v8.334h-8.406v-8.334h8.406zm10.082 0v8.334h-8.406v-8.334h8.406zm30.266 0v8.334h-8.406v-8.334h8.406zm50.442 0v8.334h-8.406v-8.334h8.406zm-10.082 0v8.334h-8.407v-8.334h8.407zm-544.777 0v8.334h-8.406v-8.334h8.406zm363.18 0v8.334h-8.406v-8.334h8.406zm131.152 0v8.334h-8.403v-8.334h8.403zm-90.793 0v8.334h-8.403v-8.334h8.403zm-363.19 0v8.334h-8.406v-8.334h8.406zm-60.527 0v8.334h-8.406v-8.334h8.406zm363.18 0v8.334h-8.407v-8.334h8.406zm-322.82 0v8.334h-8.407v-8.334h8.406zm272.386 0v8.334h-8.406v-8.334h8.406zm-20.181 0v8.334h-8.406v-8.334h8.406zm121.056 0v8.334h-8.406v-8.334h8.406zm201.775 0v8.334h-8.406v-8.334h8.406zm-110.971 0v8.334H678v-8.334h8.406zm121.056 0v8.334h-8.406v-8.334h8.406zm-221.942 0v8.334h-8.406v-8.334h8.406zm272.387 0v8.334H849.5v-8.334h8.406zm-30.266 0v8.334h-8.404v-8.334h8.404zm-10.094 0v8.334h-8.406v-8.334h8.406zm-181.585 0v8.334h-8.406v-8.334h8.406zm-423.718-9.995v8.332h-8.406v-8.332h8.406zm-50.444 0v8.332h-8.406v-8.332h8.406zm675.926 0v8.332h-8.406v-8.332h8.406zm-161.416 0v8.332h-8.406v-8.332h8.406zm60.53 0v8.332h-8.404v-8.332h8.404zm10.096 0v8.332h-8.407v-8.332h8.407zm-20.182 0v8.332h-8.406v-8.332h8.406zm-575.04 0v8.332h-8.405v-8.332h8.406zm655.748 0v8.332h-8.406v-8.332h8.406zm10.085 0v8.332h-8.406v-8.332h8.406zm-564.943 0v8.332h-8.406v-8.332h8.406zm-80.708 0v8.332h-8.406v-8.332h8.406zm655.745 0v8.332h-8.404v-8.332h8.404zm20.17 0v8.332h-8.406v-8.332h8.406zm50.444 0v8.332h-8.406v-8.332h8.406zm-403.528 0v8.332h-8.406v-8.332h8.406zm171.5 0v8.332h-8.405v-8.332h8.406zm20.179 0v8.332H678v-8.332h8.406zm-504.425 0v8.332h-8.406v-8.332h8.406zm675.926 0v8.332H849.5v-8.332h8.406zm-635.567 0v8.332h-8.406v-8.332h8.406zm20.168 0v8.332h-8.406v-8.332h8.406zm20.18 0v8.332h-8.405v-8.332h8.406zm363.18 0v8.332h-8.406v-8.332h8.406zm-121.056 0v8.332h-8.406v-8.332h8.406zm20.178 0v8.332h-8.406v-8.332h8.406zm171.501 0v8.332h-8.403v-8.332h8.403zm-504.417 0v8.332h-8.406v-8.332h8.406zm322.82 0v8.332h-8.403v-8.332h8.403zm252.22 0v8.332h-8.406v-8.332h8.406zm141.234 0v8.332h-8.406v-8.332h8.406zm-292.565 0v8.332h-8.406v-8.332h8.406zm141.235 0v8.332h-8.406v-8.332h8.406zm-121.056 0v8.332h-8.406v-8.332h8.406zm10.085 0v8.332h-8.404v-8.332h8.404zm151.33 0v8.332h-8.406v-8.332h8.406zm-312.746 0v8.332h-8.406v-8.332h8.406zm-211.857 0v8.332h-8.406v-8.332h8.406zm433.802 0v8.332h-8.406v-8.332h8.406zm10.093 0v8.332h-8.406v-8.332h8.406zm-514.51 0v8.332h-8.406v-8.332h8.406zm575.04 0v8.332h-8.403v-8.332h8.403zm10.085 0v8.332h-8.403v-8.332h8.403zm-131.152 0v8.332h-8.406v-8.332h8.406zm-423.71 0v8.332h-8.406v-8.332h8.406zm544.777-10v8.335h-8.403v-8.335h8.403zm-201.764 0v8.335h-8.406v-8.335h8.406zm-403.54 0v8.335h-8.405v-8.335h8.406zm585.123 0v8.335h-8.406v-8.335h8.406zm-575.037 0v8.335h-8.406v-8.335h8.406zm464.066 0v8.335h-8.404v-8.335h8.404zm-453.973 0v8.335h-8.406v-8.335h8.406zm70.615 0v8.335h-8.406v-8.335h8.406zm-60.53 0v8.335h-8.406v-8.335h8.406zm534.68 0v8.335h-8.403v-8.335h8.404zm-524.595 0v8.335h-8.406v-8.335h8.406zm534.692 0v8.335h-8.407v-8.335h8.407zm50.441 0v8.335h-8.406v-8.335h8.406zm121.056 0v8.335h-8.403v-8.335h8.403zm-110.97 0v8.335h-8.407v-8.335h8.406zm-534.69 0v8.335h-8.405v-8.335h8.406zm595.219 0v8.335h-8.404v-8.335h8.404zm-242.124 0v8.335h-8.406v-8.335h8.406zm-40.348 0v8.335h-8.406v-8.335h8.406zm10.082 0v8.335h-8.406v-8.335h8.406zm20.181 0v8.335h-8.406v-8.335h8.406zm50.445 0v8.335h-8.406v-8.335h8.406zm40.348 0v8.335h-8.406v-8.335h8.406zm110.971 0v8.335h-8.406v-8.335h8.406zm-50.433 0v8.335h-8.406v-8.335h8.406zm-161.416 0v8.335h-8.403v-8.335h8.403zm90.793 0v8.335h-8.403v-8.335h8.403zm-464.069 0v8.335h-8.406v-8.335h8.406zm252.209 0v8.335h-8.406v-8.335h8.406zm191.679 0v8.335h-8.406v-8.335h8.406zm-131.15 0v8.335h-8.406v-8.335h8.406zm282.48 0v8.335h-8.403v-8.335h8.404zm-40.356 0v8.335h-8.403v-8.335h8.403zm-151.322 0v8.335h-8.406v-8.335h8.406zm201.764 0v8.335h-8.406v-8.335h8.406zm-121.057 0v8.335h-8.406v-8.335h8.406zm131.142 0v8.335h-8.406v-8.335h8.406zm-161.405 0v8.335H678v-8.335h8.406zm171.5 0v8.335h-8.405v-8.335h8.406zm-615.398 0v8.335h-8.406v-8.335h8.406zm-100.876 0v8.335h-8.406v-8.335h8.406zm585.122 0v8.335h-8.406v-8.335h8.406zm-232.027 0v8.335h-8.406v-8.335h8.406zm-272.387 0v8.335h-8.406v-8.335h8.406zm-70.625 0v8.335h-8.406v-8.335h8.406zm100.889 0v8.335h-8.406v-8.335h8.406zm-90.804 0v8.335h-8.406v-8.335h8.406zm726.37 0v8.335h-8.406v-8.335h8.406zm-383.358-10.005v8.334h-8.406v-8.334h8.406zm-282.472 0v8.334h-8.406v-8.334h8.406zm272.387 0v8.334h-8.406v-8.334h8.406zm80.708 0v8.334h-8.406v-8.334h8.406zm141.234 0v8.334h-8.406v-8.334h8.406zm-554.87 0v8.334h-8.405v-8.334h8.406zm726.371 0v8.334h-8.406v-8.334h8.406zm-141.234 0v8.334h-8.407v-8.334h8.407zm80.705 0v8.334h-8.404v-8.334h8.404zm-554.867 0v8.334h-8.406v-8.334h8.406zm464.066 0v8.334h-8.404v-8.334h8.404zm-181.586 0v8.334h-8.406v-8.334h8.406zm-312.746 0v8.334h-8.406v-8.334h8.406zm-50.434 0v8.334h-8.406v-8.334h8.406zm675.918 0v8.334h-8.404v-8.334h8.404zm-161.416 0v8.334h-8.406v-8.334h8.406zm70.623 0v8.334h-8.403v-8.334h8.403zm-564.955 0v8.334h-8.406v-8.334h8.406zm514.51 0v8.334h-8.406v-8.334h8.406zm70.623 0v8.334h-8.406v-8.334h8.406zm-161.415 0v8.334h-8.406v-8.334h8.406zm201.764 0v8.334h-8.406v-8.334h8.406zm-585.122 0v8.334h-8.406v-8.334h8.406zm423.706 0v8.334h-8.406v-8.334h8.406zm171.5 0v8.334h-8.405v-8.334h8.406zm-615.388 0v8.334h-8.406v-8.334h8.406zm252.209 0v8.334h-8.406v-8.334h8.406zm322.831 0v8.334h-8.406v-8.334h8.406zm-242.123 0v8.334h-8.406v-8.334h8.406zm20.18 0v8.334h-8.405v-8.334h8.406zm181.595 0v8.334h-8.406v-8.334h8.406zm-564.955 0v8.334h-8.406v-8.334h8.406zm413.624 0v8.334h-8.406v-8.334h8.406zm-433.802 0v8.334h-8.406v-8.334h8.406zm484.247 0v8.334h-8.406v-8.334h8.406zm-403.54 0v8.334h-8.405v-8.334h8.406zm-121.056 0v8.334h-8.406v-8.334h8.406zm615.386 0v8.334h-8.406v-8.334h8.406zm-161.416 0v8.334h-8.406v-8.334h8.406zm50.445 0v8.334h-8.404v-8.334h8.404zm-494.332 0v8.334h-8.406v-8.334h8.406zm706.192 0v8.334H849.5v-8.334h8.406zm-232.039 0v8.334h-8.406v-8.334h8.406zm252.217 0v8.334h-8.406v-8.334h8.406zm-90.801 0v8.334h-8.403v-8.334h8.403zm-504.417 0v8.334h-8.406v-8.334h8.406zm403.539 0v8.334H678v-8.334h8.406zm131.141 0v8.334h-8.406v-8.334h8.406zm-645.651 0v8.334h-8.406v-8.334h8.406zm524.595 0v8.334h-8.403v-8.334h8.403zm-90.793 0v8.334h-8.403v-8.334h8.403zm50.434-10v8.334h-8.406v-8.334h8.406zm20.178 0v8.334h-8.406v-8.334h8.406zm131.152 0v8.334h-8.406v-8.334h8.406zm80.708 0v8.334h-8.406v-8.334h8.406zm-100.886 0v8.334h-8.403v-8.334h8.403zm-635.57 0v8.334h-8.405v-8.334h8.406zm363.18 0v8.334h-8.403v-8.334h8.403zm-342.998 0v8.334h-8.406v-8.334h8.406zm332.916 0v8.334h-8.406v-8.334h8.406zm-312.738 0v8.334h-8.406v-8.334h8.406zm393.446 0v8.334h-8.406v-8.334h8.406zm-373.276 0v8.334h-8.406v-8.334h8.406zm524.596 0v8.334h-8.404v-8.334h8.404zm131.152 0v8.334h-8.404v-8.334h8.404zm-302.653 0v8.334h-8.406v-8.334h8.406zm-20.179 0v8.334h-8.406v-8.334h8.406zm282.48 0v8.334h-8.403v-8.334h8.404zm-332.913 0v8.334h-8.406v-8.334h8.406zm353.084 0v8.334h-8.406v-8.334h8.406zm-272.376 0v8.334h-8.406v-8.334h8.406zm302.65 0v8.334h-8.406v-8.334h8.406zm-736.453 0v8.334h-8.406v-8.334h8.406zm625.482 0v8.334h-8.406v-8.334h8.406zm-585.133 0v8.334h-8.406v-8.334h8.406zm20.178 0v8.334h-8.406v-8.334h8.406zm20.181 0v8.334h-8.406v-8.334h8.406zm494.33 0v8.334h-8.407v-8.334h8.406zm-443.896 0v8.334h-8.406v-8.334h8.406zm20.178 0v8.334h-8.406v-8.334h8.406zm635.567 0v8.334h-8.407v-8.334h8.407zm-373.265 0v8.334h-8.406v-8.334h8.406zm-70.623 0v8.334h-8.406v-8.334h8.406zm272.387 0v8.334h-8.406v-8.334h8.406zm20.18 0v8.334h-8.402v-8.334h8.403zm-615.398 0v8.334h-8.406v-8.334h8.406zm90.804 0v8.334h-8.406v-8.334h8.406zm282.471 0v8.334h-8.406v-8.334h8.406zm262.302 0v8.334h-8.406v-8.334h8.406zm-110.971 0v8.334H678v-8.334h8.406zm20.17 0v8.334h-8.406v-8.334h8.406zm20.178 0v8.334h-8.406v-8.334h8.406zm90.793 0v8.334h-8.406v-8.334h8.406zm-191.679 0v8.334h-8.406v-8.334h8.406zm211.858 0v8.334h-8.406v-8.334h8.406zm-171.498 0v8.334h-8.406v-8.334h8.406zm-30.266 0v8.334h-8.406v-8.334h8.406zm110.974 0v8.334h-8.407v-8.334h8.407zm110.97 0v8.334h-8.405v-8.334h8.406zm-625.484 0v8.334h-8.406v-8.334h8.406zm665.833 0v8.334h-8.406v-8.334h8.406zm-635.566 0v8.334h-8.406v-8.334h8.406zm20.178 0v8.334h-8.406v-8.334h8.406zm413.624 0v8.334h-8.403v-8.334h8.403zm-393.443-10.006v8.335h-8.406v-8.335h8.406zm252.206 0v8.335h-8.406v-8.335h8.406zm322.831 0v8.335h-8.406v-8.335h8.406zm-70.623 0v8.335h-8.406v-8.335h8.406zm-534.688 0v8.335h-8.406v-8.335h8.406zm-50.434 0v8.335h-8.406v-8.335h8.406zm554.859 0v8.335h-8.403v-8.335h8.403zm-131.152 0v8.335h-8.404v-8.335h8.404zm-484.247 0v8.335h-8.406v-8.335h8.406zm413.635 0v8.335h-8.406v-8.335h8.406zm-252.22 0v8.335h-8.406v-8.335h8.406zm494.332 0v8.335h-8.406v-8.335h8.406zm-70.611 0v8.335h-8.407v-8.335h8.407zm-605.304 0v8.335h-8.406v-8.335h8.406zm464.066 0v8.335h-8.403v-8.335h8.403zm70.612 0v8.335h-8.406v-8.335h8.406zm151.33 0v8.335h-8.403v-8.335h8.404zm-131.149 0v8.335h-8.403v-8.335h8.403zm-504.417 0v8.335h-8.406v-8.335h8.406zm524.595 0v8.335h-8.406v-8.335h8.406zm131.142 0v8.335h-8.406v-8.335h8.406zm-110.971 0v8.335h-8.404v-8.335h8.404zm50.444 0v8.335h-8.403v-8.335h8.403zm-161.416 0v8.335h-8.406v-8.335h8.406zm-332.916 0v8.335h-8.406v-8.335h8.406zm232.038 0v8.335h-8.406v-8.335h8.406zm373.265 0v8.335h-8.406v-8.335h8.406zm-363.18 0v8.335h-8.406v-8.335h8.406zm-353.094 0v8.335h-8.406v-8.335h8.406zm50.441 0v8.335h-8.406v-8.335h8.406zm524.596 0v8.335h-8.406v-8.335h8.406zm151.33 0v8.335h-8.406v-8.335h8.406zm-625.481 0v8.335h-8.406v-8.335h8.406zm585.125 0v8.335h-8.404v-8.335h8.404zm-232.03 0v8.335h-8.406v-8.335h8.406zm-423.718 0v8.335h-8.406v-8.335h8.406zm373.276 0v8.335h-8.406v-8.335h8.406zm100.886 0v8.335H678v-8.335h8.406zm-534.691 0v8.335h-8.406v-8.335h8.406zm575.04 0v8.335h-8.407v-8.335h8.406zm-221.943 0v8.335h-8.406v-8.335h8.406zm262.302 0v8.335h-8.406v-8.335h8.406zm-595.218 0v8.335h-8.406v-8.335h8.406zm494.332 0v8.335h-8.406v-8.335h8.406zm-464.069 0v8.335h-8.406v-8.335h8.406zm504.417 0v8.335h-8.406v-8.335h8.406zm-141.237 0v8.335h-8.406v-8.335h8.406zm50.444 0v8.335h-8.406v-8.335h8.406zm-70.623 0v8.335h-8.406v-8.335h8.406zm-302.652 0v8.335h-8.406v-8.335h8.406zm10.096 0v8.335h-8.406v-8.335h8.406zm10.085 0v8.335h-8.406v-8.335h8.406zm50.441 0v8.335h-8.406v-8.335h8.406zm575.04 0v8.335h-8.406v-8.335h8.406zm-90.793 0v8.335h-8.406v-8.335h8.406zm40.349 0v8.335h-8.406v-8.335h8.406zm20.18 0v8.335h-8.405v-8.335h8.406zm-343.012 0v8.335h-8.403v-8.335h8.403zm-353.094-10v8.335h-8.406v-8.335h8.406zm655.747 0v8.335h-8.406v-8.335h8.406zm-615.388 0v8.335h-8.406v-8.335h8.406zm433.803 0v8.335h-8.406v-8.335h8.406zm-383.358 0v8.335h-8.406v-8.335h8.406zm585.122 0v8.335h-8.406v-8.335h8.406zm-544.774 0v8.335h-8.406v-8.335h8.406zm252.208 0v8.335h-8.406v-8.335h8.406zm221.954 0v8.335h-8.406v-8.335h8.406zm-201.775 0v8.335h-8.406v-8.335h8.406zm60.53 0v8.335h-8.407v-8.335h8.406zm-40.35 0v8.335h-8.405v-8.335h8.406zm80.709 0v8.335h-8.406v-8.335h8.406zm-110.974 0v8.335h-8.406v-8.335h8.406zm-60.527 0v8.335h-8.406v-8.335h8.406zm363.18 0v8.335H849.5v-8.335h8.406zm-353.095 0v8.335h-8.406v-8.335h8.406zm242.124 0v8.335h-8.407v-8.335h8.407zm-221.946 0v8.335h-8.406v-8.335h8.406zm-10.096 0v8.335h-8.403v-8.335h8.403zm-232.027 0v8.335h-8.406v-8.335h8.406zm-10.093 0v8.335h-8.406v-8.335h8.406zm30.274 0v8.335h-8.406v-8.335h8.406zm423.706 0v8.335h-8.406v-8.335h8.406zm-383.358 0v8.335h-8.406v-8.335h8.406zm413.622 0v8.335h-8.406v-8.335h8.406zm50.444 0v8.335h-8.406v-8.335h8.406zm-100.886 0v8.335h-8.406v-8.335h8.406zm221.943 0v8.335h-8.407v-8.335h8.407zm-393.444 0v8.335h-8.406v-8.335h8.406zm-363.18 0v8.335h-8.405v-8.335h8.406zm403.54 0v8.335h-8.406v-8.335h8.406zm302.65 0v8.335h-8.406v-8.335h8.406zm30.263 0v8.335h-8.406v-8.335h8.406zm-575.037 0v8.335h-8.406v-8.335h8.406zm342.999 0v8.335h-8.406v-8.335h8.406zm-60.527 0v8.335h-8.406v-8.335h8.406zm302.65 0v8.335h-8.403v-8.335h8.403zm-272.386 0v8.335h-8.404v-8.335h8.404zm-494.332 0v8.335h-8.406v-8.335h8.406zm564.954 0v8.335h-8.406v-8.335h8.406zm20.17 0v8.335h-8.403v-8.335h8.404zm-595.207 0v8.335h-8.406v-8.335h8.406zm635.567 0v8.335h-8.403v-8.335h8.403zm-585.125 0v8.335h-8.406v-8.335h8.406zm504.417 0v8.335h-8.403v-8.335h8.403zm191.68 0v8.335h-8.407v-8.335h8.406zm-60.53 0v8.335h-8.404v-8.335h8.404zm20.17 0v8.335h-8.406v-8.335h8.406zm20.18 0v8.335h-8.403v-8.335h8.404zm-605.302 0v8.335h-8.406v-8.335h8.406zm-131.153 0v8.335h-8.406v-8.335h8.406zm655.748 0v8.335h-8.403v-8.335h8.403zm-181.586 0v8.335h-8.403v-8.335h8.403zm-10.096 0v8.335h-8.406v-8.335h8.406zm-383.358 0v8.335h-8.406v-8.335h8.406zm474.162 0v8.335H678v-8.335h8.406zm-453.984 0v8.335h-8.406v-8.335h8.406zm-50.441 0v8.335h-8.406v-8.335h8.406zm474.15 0v8.335h-8.405v-8.335h8.406zm141.246 0v8.335h-8.406v-8.335h8.406zm100.878 0v8.335h-8.406v-8.335h8.406zm-675.915 0v8.335h-8.406v-8.335h8.406zm302.65-9.994v8.334h-8.406v-8.334h8.406zm282.472 0v8.334h-8.406v-8.334h8.406zm-151.33 0v8.334h-8.406v-8.334h8.406zm80.708 0v8.334h-8.404v-8.334h8.404zm-201.765 0v8.334h-8.406v-8.334h8.406zm373.273 0v8.334h-8.406v-8.334h8.406zm10.085 0v8.334h-8.403v-8.334h8.403zm10.086 0v8.334h-8.407v-8.334h8.407zm-383.359 0v8.334h-8.406v-8.334h8.406zm-403.528 0v8.334h-8.406v-8.334h8.406zm10.083 0v8.334h-8.406v-8.334h8.406zm10.085 0v8.334h-8.406v-8.334h8.406zm141.248 0v8.334h-8.406v-8.334h8.406zm-121.067 0v8.334h-8.406v-8.334h8.406zm10.093 0v8.334h-8.406v-8.334h8.406zm10.085 0v8.334h-8.406v-8.334h8.406zm363.18 0v8.334h-8.406v-8.334h8.406zm292.568 0v8.334H849.5v-8.334h8.406zm-90.793 0v8.334h-8.406v-8.334h8.406zm-121.067 0v8.334h-8.404v-8.334h8.404zm-312.736 0v8.334h-8.406v-8.334h8.406zm484.236 0v8.334h-8.406v-8.334h8.406zm-131.141 0v8.334H678v-8.334h8.406zm141.235 0v8.334h-8.404v-8.334h8.404zm-332.914 0v8.334h-8.406v-8.334h8.406zm342.999 0v8.334h-8.406v-8.334h8.406zm-110.972 0v8.334h-8.406v-8.334h8.406zm121.057 0v8.334h-8.406v-8.334h8.406zm-342.999 0v8.334h-8.406v-8.334h8.406zm-373.276 0v8.334h-8.406v-8.334h8.406zm161.416 0v8.334h-8.406v-8.334h8.406zm484.247 0v8.334h-8.403v-8.334h8.403zm-554.859 0v8.334h-8.406v-8.334h8.406zm10.082 0v8.334h-8.406v-8.334h8.406zm10.086 0v8.334h-8.406v-8.334h8.406zm332.927 0v8.334h-8.406v-8.334h8.406zm-312.746 0v8.334h-8.406v-8.334h8.406zm10.085 0v8.334h-8.406v-8.334h8.406zm10.093 0v8.334h-8.406v-8.334h8.406zm302.653 0v8.334h-8.406v-8.334h8.406zm-262.305 0v8.334h-8.406v-8.334h8.406zm191.68 0v8.334h-8.404v-8.334h8.403zm40.359 0v8.334h-8.406v-8.334h8.406zm-242.124 0v8.334h-8.406v-8.334h8.406zm322.832 0v8.334h-8.406v-8.334h8.406zm30.266 0v8.334h-8.406v-8.334h8.406zm40.348 0v8.334h-8.406v-8.334h8.406zm-100.878 0v8.334h-8.403v-8.334h8.403zm181.586 0v8.334h-8.403v-8.334h8.403zm-70.615 0v8.334h-8.406v-8.334h8.406zm181.586 0v8.334h-8.406v-8.334h8.406zm-282.472 0v8.334h-8.406v-8.334h8.406zm-443.887 0v8.334h-8.406v-8.334h8.406zm40.348 0v8.334h-8.406v-8.334h8.406zm40.36 0v8.334h-8.406v-8.334h8.406zm373.264 0v8.334h-8.406v-8.334h8.406zm-30.266 0v8.334h-8.406v-8.334h8.406zm151.334 0v8.334h-8.407v-8.334h8.407zm50.441 0v8.334h-8.406v-8.334h8.406zm-40.36 0v8.334h-8.405v-8.334h8.406zm-80.707 0v8.334h-8.406v-8.334h8.406zm211.86 0v8.334h-8.406v-8.334h8.406zm-20.178 0v8.334h-8.404v-8.334h8.404zm10.093 0v8.334h-8.406v-8.334h8.406zm-181.594 0v8.334h-8.403v-8.334h8.403zm-30.263-10.009v8.332h-8.406v-8.332h8.406zm-363.18 0v8.332h-8.406v-8.332h8.406zm282.472 0v8.332h-8.406v-8.332h8.406zm342.999 0v8.332h-8.407v-8.332h8.407zm-756.623 0v8.332h-8.406v-8.332h8.406zm322.831 0v8.332h-8.406v-8.332h8.406zm-252.22 0v8.332h-8.405v-8.332h8.406zm655.748 0v8.332h-8.406v-8.332h8.406zm-211.849 0v8.332H678v-8.332h8.406zm-524.606 0v8.332h-8.406v-8.332h8.406zm716.285 0v8.332h-8.406v-8.332h8.406zm-201.775 0v8.332h-8.406v-8.332h8.406zm-494.33 0v8.332h-8.405v-8.332h8.406zm464.067 0v8.332h-8.404v-8.332h8.404zm-20.179 0v8.332h-8.406v-8.332h8.406zm181.594 0v8.332h-8.406v-8.332h8.406zm-686.01 0v8.332h-8.407v-8.332h8.406zm645.662 0v8.332h-8.406v-8.332h8.406zm-282.483 0v8.332h-8.406v-8.332h8.406zm221.945 0v8.332h-8.406v-8.332h8.406zm-514.502 0v8.332h-8.406v-8.332h8.406zm554.862 0v8.332h-8.407v-8.332h8.407zm221.942 0v8.332h-8.403v-8.332h8.403zm-655.748 0v8.332h-8.406v-8.332h8.406zm343.002 0v8.332h-8.406v-8.332h8.406zm-131.142 0v8.332h-8.406v-8.332h8.406zm-312.746 0v8.332h-8.406v-8.332h8.406zm10.096 0v8.332h-8.406v-8.332h8.406zm30.264 0v8.332h-8.406v-8.332h8.406zm-20.182 0v8.332h-8.406v-8.332h8.406zm40.352 0v8.332h-8.406v-8.332h8.406zm50.441 0v8.332h-8.406v-8.332h8.406zm393.454 0v8.332h-8.406v-8.332h8.406zm-181.594 0v8.332h-8.406v-8.332h8.406zm373.273 0v8.332h-8.406v-8.332h8.406zm-575.037 0v8.332h-8.406v-8.332h8.406zm403.529 0v8.332h-8.404v-8.332h8.404zm-10.086 0v8.332h-8.406v-8.332h8.406zm121.057 0v8.332h-8.406v-8.332h8.406zm131.152 0v8.332h-8.406v-8.332h8.406zm-221.945 0v8.332h-8.406v-8.332h8.406zm-625.482 0v8.332h-8.406v-8.332h8.406zm686.011 0v8.332h-8.406v-8.332h8.406zm-665.832 0v8.332h-8.406v-8.332h8.406zm625.484 0v8.332h-8.403v-8.332h8.403zm-494.332 0v8.332h-8.406v-8.332h8.406zm585.125 0v8.332h-8.404v-8.332h8.404zm-302.653 0v8.332h-8.406v-8.332h8.406zm232.038 0v8.332h-8.406v-8.332h8.406zm-504.425 0v8.332h-8.406v-8.332h8.406zm282.483 0v8.332h-8.406v-8.332h8.406zm-433.803 0v8.332h-8.406v-8.332h8.406zm494.33 0v8.332h-8.406v-8.332h8.406zm-161.416 0v8.332h-8.406v-8.332h8.406zm141.237 0v8.332h-8.406v-8.332h8.406zm211.858 0v8.332h-8.404v-8.332h8.404zm90.792 0v8.332h-8.403v-8.332h8.403zm-363.18 0v8.332h-8.405v-8.332h8.406zm282.473 0v8.332h-8.406v-8.332h8.406zm-635.567 0v8.332h-8.406v-8.332h8.406zm403.54 0v8.332h-8.404v-8.332h8.403zm181.585 0v8.332h-8.403v-8.332h8.403zm-191.682 0v8.332h-8.406v-8.332h8.406zm262.305 0v8.332H849.5v-8.332h8.406zm30.263 0v8.332h-8.406v-8.332h8.406zm-343.01 0v8.332h-8.406v-8.332h8.406zm151.331 0v8.332h-8.403v-8.332h8.403zm-60.53-9.997v8.335h-8.405v-8.335h8.406zm80.708 0v8.335h-8.406v-8.335h8.406zm191.68 0v8.335h-8.407v-8.335h8.406zm-181.595 0v8.335h-8.406v-8.335h8.406zm-191.679 0v8.335h-8.406v-8.335h8.406zm221.943 0v8.335h-8.406v-8.335h8.406zm-262.291 0v8.335h-8.406v-8.335h8.406zm383.358 0v8.335h-8.406v-8.335h8.406zm-221.953 0v8.335h-8.406v-8.335h8.406zm312.746 0v8.335h-8.403v-8.335h8.403zm-776.804 0v8.335h-8.406v-8.335h8.406zm10.085 0v8.335h-8.406v-8.335h8.406zm635.567 0v8.335h-8.406v-8.335h8.406zm-595.218 0v8.335h-8.406v-8.335h8.406zm-30.264 0v8.335h-8.406v-8.335h8.406zm766.719 0v8.335h-8.406v-8.335h8.406zm-302.653 0v8.335h-8.406v-8.335h8.406zm-564.944 0v8.335h-8.406v-8.335h8.406zm504.417 0v8.335h-8.406v-8.335h8.406zm211.858 0v8.335h-8.404v-8.335h8.404zm40.35 0v8.335h-8.403v-8.335h8.404zm-181.585 0v8.335H678v-8.335h8.406zm100.878 0v8.335h-8.403v-8.335h8.403zm-90.793 0v8.335h-8.403v-8.335h8.403zm191.68 0v8.335h-8.407v-8.335h8.406zm-181.595 0v8.335h-8.406v-8.335h8.406zm-80.708 0v8.335h-8.406v-8.335h8.406zm20.179 0v8.335h-8.404v-8.335h8.404zm-342.999 0v8.335h-8.406v-8.335h8.406zm433.792 0v8.335h-8.404v-8.335h8.404zm80.707 0v8.335h-8.406v-8.335h8.406zm80.708 0v8.335h-8.406v-8.335h8.406zm-585.125 0v8.335h-8.406v-8.335h8.406zm-90.79 0v8.335h-8.406v-8.335h8.406zm443.888 0v8.335h-8.406v-8.335h8.406zm322.828 0v8.335h-8.406v-8.335h8.406zm-958.398 0v8.335h-8.406v-8.335h8.406zm736.456 0v8.335h-8.406v-8.335h8.406zm-171.512 0v8.335h-8.406v-8.335h8.406zm10.096 0v8.335h-8.403v-8.335h8.403zm-484.247 0v8.335h-8.406v-8.335h8.406zm736.456 0v8.335H849.5v-8.335h8.406zm-110.971 0v8.335h-8.407v-8.335h8.407zm-453.984 0v8.335h-8.406v-8.335h8.406zm-161.416 0v8.335h-8.406v-8.335h8.406zm30.264 0v8.335h-8.406v-8.335h8.406zm10.096 0v8.335h-8.406v-8.335h8.406zm10.085 0v8.335h-8.406v-8.335h8.406zm-30.266 0v8.335h-8.406v-8.335h8.406zm433.805 0v8.335h-8.406v-8.335h8.406zm262.29 0v8.335h-8.405v-8.335h8.406zm-50.433 0v8.335h-8.406v-8.335h8.406zm-20.178 0v8.335h-8.403v-8.335h8.403zm-544.777 0v8.335h-8.406v-8.335h8.406zm-90.79 0v8.335h-8.406v-8.335h8.406zm433.803 0v8.335h-8.406v-8.335h8.406zm232.027 0v8.335h-8.406v-8.335h8.406zm-524.595 0v8.335h-8.406v-8.335h8.406zm262.293 0v8.335h-8.406v-8.335h8.406zm-363.18-9.997v8.332h-8.405v-8.332h8.406zm605.304 0v8.332h-8.403v-8.332h8.403zm-564.944 0v8.332h-8.406v-8.332h8.406zm-181.597 0v8.332h-8.406v-8.332h8.406zm262.305 0v8.332h-8.406v-8.332h8.406zm585.122 0v8.332h-8.406v-8.332h8.406zm-272.387 0v8.332h-8.406v-8.332h8.406zm201.764 0v8.332h-8.406v-8.332h8.406zm-40.348 0v8.332h-8.403v-8.332h8.403zm-655.748 0v8.332h-8.406v-8.332h8.406zm726.36 0v8.332h-8.406v-8.332h8.406zm-706.179 0v8.332h-8.406v-8.332h8.406zm10.083 0v8.332h-8.406v-8.332h8.406zm686.01 0v8.332h-8.405v-8.332h8.406zm80.708 0v8.332h-8.403v-8.332h8.403zm-625.481 0v8.332h-8.406v-8.332h8.406zm-20.178 0v8.332h-8.406v-8.332h8.406zm625.481 0v8.332h-8.406v-8.332h8.406zm-20.17 0v8.332h-8.406v-8.332h8.406zm-191.679 0v8.332H678v-8.332h8.406zm-191.679 0v8.332h-8.406v-8.332h8.406zm272.387 0v8.332h-8.406v-8.332h8.406zm-595.218 0v8.332h-8.406v-8.332h8.406zm544.773 0v8.332h-8.406v-8.332h8.406zm-524.595 0v8.332h-8.406v-8.332h8.406zm665.833 0v8.332H849.5v-8.332h8.406zm-332.917 0v8.332h-8.406v-8.332h8.406zm201.764 0v8.332h-8.406v-8.332h8.406zm-151.32 0v8.332h-8.405v-8.332h8.406zm10.086 0v8.332h-8.406v-8.332h8.406zm171.498 0v8.332h-8.406v-8.332h8.406zm221.945 0v8.332h-8.406v-8.332h8.406zm-171.5 0v8.332h-8.407v-8.332h8.406zm-645.663 0v8.332h-8.406v-8.332h8.406zm514.51 0v8.332h-8.406v-8.332h8.406zm-20.178 0v8.332h-8.406v-8.332h8.406zm252.216 0v8.332h-8.406v-8.332h8.406zm-312.746 0v8.332h-8.406v-8.332h8.406zm141.238 0v8.332h-8.404v-8.332h8.404zm-40.349 0v8.332h-8.403v-8.332h8.403zm-494.332 0v8.332h-8.406v-8.332h8.406zm10.085 0v8.332h-8.406v-8.332h8.406zm413.624 0v8.332h-8.406v-8.332h8.406zm-343.001 0v8.332h-8.406v-8.332h8.406zm262.293 0v8.332h-8.406v-8.332h8.406zm-433.794 0v8.332h-8.406v-8.332h8.406zm494.332 0v8.332h-8.403v-8.332h8.403zm262.294 0v8.332h-8.404v-8.332h8.404zm-221.945 0v8.332h-8.404v-8.332h8.404zm-514.51 0v8.332h-8.407v-8.332h8.406zm-30.264 0v8.332h-8.406v-8.332h8.406zm211.857 0v8.332h-8.406v-8.332h8.406zm484.247 0v8.332h-8.406v-8.332h8.406zm30.264 0v8.332h-8.404v-8.332h8.404zm-161.413 0v8.332h-8.406v-8.332h8.406zm80.708 0v8.332h-8.407v-8.332h8.407zm-40.36 0v8.332h-8.406v-8.332h8.406zm-70.614 0v8.332h-8.406v-8.332h8.406zm141.237-10.008v8.334h-8.403v-8.334h8.403zm-221.945 0v8.334h-8.406v-8.334h8.406zm100.878 0v8.334h-8.406v-8.334h8.406zm-605.303 0v8.334h-8.407v-8.334h8.407zm635.577 0v8.334H678v-8.334h8.406zm100.878 0v8.334h-8.403v-8.334h8.403zm-504.417 0v8.334h-8.406v-8.334h8.406zm-242.124 0v8.334h-8.406v-8.334h8.406zm80.708 0v8.334h-8.406v-8.334h8.406zm10.085 0v8.334h-8.406v-8.334h8.406zm232.039 0v8.334h-8.406v-8.334h8.406zm564.944 0v8.334h-8.407v-8.334h8.407zm-121.057 0v8.334h-8.406v-8.334h8.406zm-796.982 0v8.334H2.074v-8.334h8.406zm514.51 0v8.334h-8.406v-8.334h8.406zm312.736 0v8.334h-8.406v-8.334h8.406zm80.707 0v8.334h-8.403v-8.334h8.403zm-736.452 0v8.334h-8.406v-8.334h8.406zm363.18 0v8.334h-8.407v-8.334h8.406zm60.537 0v8.334h-8.403v-8.334h8.403zm221.943 0v8.334h-8.404v-8.334h8.404zm-534.689 0v8.334h-8.406v-8.334h8.406zm413.624 0v8.334h-8.406v-8.334h8.406zm10.093 0v8.334h-8.406v-8.334h8.406zm-655.744 0v8.334h-8.406v-8.334h8.406zm211.849 0v8.334h-8.406v-8.334h8.406zm453.98 0v8.334h-8.406v-8.334h8.406zm40.36 0v8.334h-8.406v-8.334h8.406zm80.697 0v8.334h-8.406v-8.334h8.406zm-50.434 0v8.334h-8.406v-8.334h8.406zm-60.537 0v8.334h-8.404v-8.334h8.404zm-161.405 0v8.334h-8.406v-8.334h8.406zm363.18 0v8.334h-8.406v-8.334h8.406zm-403.54 0v8.334h-8.406v-8.334h8.406zm221.943 0v8.334h-8.406v-8.334h8.406zm-665.83 0v8.334h-8.406v-8.334h8.406zm776.804 0v8.334h-8.404v-8.334h8.404zm10.093 0v8.334h-8.406v-8.334h8.406zm-655.745 0v8.334h-8.406v-8.334h8.406zm524.596 0v8.334h-8.407v-8.334h8.407zm-605.304 0v8.334h-8.406v-8.334h8.406zm504.415 0v8.334h-8.404v-8.334h8.404zm-615.389 0v8.334h-8.406v-8.334h8.406zm938.22 0v8.334h-8.403v-8.334h8.403zm-80.708 0v8.334h-8.406v-8.334h8.406zm100.886 0v8.334h-8.406v-8.334h8.406zm10.085 0v8.334h-8.406v-8.334h8.406zm-786.897 0v8.334h-8.406v-8.334h8.406zm464.066 0v8.334h-8.406v-8.334h8.406zm282.472 0v8.334h-8.403v-8.334h8.403zm-847.416 0v8.334h-8.406v-8.334h8.406zm60.53 0v8.334h-8.406v-8.334h8.406zm-20.181 0v8.334h-8.406v-8.334h8.406zm-50.442 0v8.334h-8.406v-8.334h8.406zm807.075 0v8.334h-8.406v-8.334h8.406zm-716.274 0v8.334h-8.406v-8.334h8.406zm756.623 0v8.334h-8.406v-8.334h8.406zm-877.687 0v8.334h-8.406v-8.334h8.406zm90.79 0v8.334h-8.406v-8.334h8.406zm655.747 0v8.334h-8.406v-8.334h8.406zm-121.056 0v8.334h-8.403v-8.334h8.403zm161.416 0v8.334H849.5v-8.334h8.406zm151.32 0v8.334h-8.404v-8.334h8.403zm-110.972 0v8.334h-8.406v-8.334h8.406zm-302.653 0v8.334h-8.406v-8.334h8.406zm-393.443 0v8.334h-8.406v-8.334h8.406zm-121.056 0v8.334h-8.406v-8.334h8.406zm504.417 0v8.334h-8.406v-8.334h8.406zm30.263 0v8.334h-8.406v-8.334h8.406zm10.085 0v8.334h-8.406v-8.334h8.406zm-605.303 0v8.334H12.16v-8.334h8.406zm645.663 0v8.334h-8.406v-8.334h8.406zm-30.266 0v8.334h-8.406v-8.334h8.406zm-262.302 0v8.334h-8.406v-8.334h8.406zm151.33-9.998v8.335h-8.406v-8.335h8.406zm-221.942 0v8.335h-8.406v-8.335h8.406zm272.387 0v8.335h-8.406v-8.335h8.406zm221.942 0v8.335h-8.406v-8.335h8.406zm-423.717 0v8.335h-8.406v-8.335h8.406zm373.276 0v8.335h-8.407v-8.335h8.407zm-131.153 0v8.335h-8.406v-8.335h8.406zm403.54 0v8.335h-8.407v-8.335h8.406zm-363.191 0v8.335h-8.406v-8.335h8.406zm110.982 0v8.335h-8.406v-8.335h8.406zm242.112 0v8.335h-8.403v-8.335h8.403zm-403.528 0v8.335h-8.403v-8.335h8.403zm-575.04 0v8.335h-8.406v-8.335h8.406zm756.626 0v8.335h-8.403v-8.335h8.403zm-716.274 0v8.335h-8.406v-8.335h8.406zm-50.445 0v8.335H12.16v-8.335h8.406zm948.313 0v8.335h-8.403v-8.335h8.403zm-161.416 0v8.335h-8.406v-8.335h8.406zm-110.97 0v8.335h-8.404v-8.335h8.403zm-464.07 0v8.335h-8.406v-8.335h8.406zm504.418 0v8.335h-8.404v-8.335h8.404zm100.886 0v8.335h-8.406v-8.335h8.406zm-60.527 0v8.335h-8.403v-8.335h8.403zm-736.456 0v8.335h-8.406v-8.335h8.406zm786.898 0v8.335h-8.404v-8.335h8.404zm30.266 0v8.335H849.5v-8.335h8.406zm10.085 0v8.335h-8.404v-8.335h8.404zm-242.124 0v8.335h-8.406v-8.335h8.406zm-262.293 0v8.335h-8.406v-8.335h8.406zm-70.623 0v8.335h-8.406v-8.335h8.406zm-161.416 0v8.335h-8.406v-8.335h8.406zm-70.611 0v8.335h-8.406v-8.335h8.406zm110.97 0v8.335h-8.405v-8.335h8.406zm181.584 0v8.335h-8.406v-8.335h8.406zm534.691 0v8.335h-8.406v-8.335h8.406zm-332.916 0v8.335h-8.406v-8.335h8.406zm373.265 0v8.335h-8.407v-8.335h8.407zm-817.153 0v8.335h-8.406v-8.335h8.406zm847.416 0v8.335h-8.403v-8.335h8.403zm-877.68 0v8.335h-8.405v-8.335h8.406zm464.058 0v8.335h-8.406v-8.335h8.406zm-423.709 0v8.335h-8.406v-8.335h8.406zm514.51 0v8.335h-8.405v-8.335h8.406zm10.086 0v8.335h-8.404v-8.335h8.404zm383.358 0v8.335h-8.406v-8.335h8.406zm-887.773 0v8.335h-8.406v-8.335h8.406zm-50.444 0v8.335h-8.406v-8.335h8.406zm10.085 0v8.335h-8.406v-8.335h8.406zm615.396 0v8.335h-8.406v-8.335h8.406zm-554.87 0v8.335h-8.405v-8.335h8.406zm-10.084 0v8.335h-8.406v-8.335h8.406zm827.248 0v8.335h-8.406v-8.335h8.406zm-70.615 0v8.335h-8.406v-8.335h8.406zm-30.263 0v8.335h-8.406v-8.335h8.406zm-655.745 0v8.335h-8.406v-8.335h8.406zm443.888 0v8.335h-8.406v-8.335h8.406zm10.082 0v8.335h-8.406v-8.335h8.406zm221.945 0v8.335h-8.406v-8.335h8.406zm90.801 0v8.335h-8.406v-8.335h8.406zm10.085 0v8.335h-8.406v-8.335h8.406zm-151.33 0v8.335h-8.406v-8.335h8.406zm-30.264 0v8.335h-8.406v-8.335h8.406zm-282.472 0v8.335h-8.406v-8.335h8.406zm191.68 0v8.335h-8.407v-8.335h8.406zm-544.774 0v8.335h-8.406v-8.335h8.406zm736.452 0v8.335h-8.403v-8.335h8.403zm-726.359 0v8.335h-8.406v-8.335h8.406zm393.446 0v8.335h-8.406v-8.335h8.406zm10.082 0v8.335h-8.406v-8.335h8.406zm343.013 0v8.335h-8.406v-8.335h8.406zm-181.597 0v8.335h-8.406v-8.335h8.406zm-50.442 0v8.335h-8.406v-8.335h8.406zm242.12 0v8.335h-8.405v-8.335h8.406zm-746.537 0v8.335h-8.406v-8.335h8.406zm10.085 0v8.335h-8.406v-8.335h8.406zm474.162 0v8.335H678v-8.335h8.406zm-635.577 0v8.335h-8.407v-8.335h8.407zm-40.349-9.997v8.335H2.074v-8.335h8.406zm1049.194 0v8.335h-8.407v-8.335h8.407zm-201.767-.003v8.335H849.5v-8.335h8.406zm141.234 0v8.335h-8.406v-8.335h8.406zm-272.387 0v8.335h-8.406v-8.335h8.406zm151.331 0v8.335h-8.406v-8.335h8.406zm-807.075 0v8.335h-8.406v-8.335h8.406zm151.33 0v8.335h-8.406v-8.335h8.406zm524.596 0v8.335h-8.407v-8.335h8.407zm-474.162 0v8.335h-8.406v-8.335h8.406zm171.509 0v8.335h-8.406v-8.335h8.406zm-282.483 0v8.335h-8.406v-8.335h8.406zm484.247 0v8.335h-8.404v-8.335h8.404zm292.568 0v8.335h-8.406v-8.335h8.406zm-907.957 0v8.335h-8.406v-8.335h8.406zm564.944 0v8.335h-8.406v-8.335h8.406zm70.626 0v8.335h-8.406v-8.335h8.406zm-30.266 0v8.335h-8.406v-8.335h8.406zm-322.832 0v8.335h-8.406v-8.335h8.406zm40.349 0v8.335h-8.406v-8.335h8.406zm595.218 0v8.335h-8.406v-8.335h8.406zm-514.51 0v8.335h-8.406v-8.335h8.406zm585.135 0v8.335h-8.406v-8.335h8.406zm-464.068 0v8.335h-8.406v-8.335h8.406zm30.266 0v8.335h-8.406v-8.335h8.406zm403.536 0v8.335h-8.406v-8.335h8.406zm-786.897 0v8.335h-8.406v-8.335h8.406zm827.246 0v8.335h-8.406v-8.335h8.406zm-423.707 0v8.335h-8.403v-8.335h8.403zm70.612 0v8.335h-8.406v-8.335h8.406zm10.096 0v8.335H678v-8.335h8.406zm30.263 0v8.335h-8.406v-8.335h8.406zm-665.84 0v8.335h-8.407v-8.335h8.407zm706.189 0v8.335h-8.406v-8.335h8.406zm-50.442 0v8.335h-8.406v-8.335h8.406zm90.801 0v8.335h-8.406v-8.335h8.406zm-252.217 0v8.335h-8.406v-8.335h8.406zm-373.264 0v8.335h-8.406v-8.335h8.406zm211.86 0v8.335h-8.406v-8.335h8.406zm-343.013 0v8.335h-8.406v-8.335h8.406zm887.776 0v8.335h-8.407v-8.335h8.407zm-90.793 0v8.335h-8.406v-8.335h8.406zm80.707 0v8.335h-8.403v-8.335h8.403zm-635.566 0v8.335h-8.406v-8.335h8.406zm756.623 0v8.335h-8.406v-8.335h8.406zm-958.387 0v8.335h-8.406v-8.335h8.406zm544.765 0v8.335h-8.406v-8.335h8.406zm-504.417 0v8.335h-8.406v-8.335h8.406zm171.501 0v8.335h-8.406v-8.335h8.406zm10.096 0v8.335h-8.406v-8.335h8.406zm151.32 0v8.335h-8.406v-8.335h8.406zm312.746 0v8.335h-8.406v-8.335h8.406zm242.112 0v8.335h-8.403v-8.335h8.403zm-948.301 0v8.335h-8.406v-8.335h8.406zm30.263 0v8.335h-8.406v-8.335h8.406zm50.444 0v8.335h-8.406v-8.335h8.406zm423.707 0v8.335h-8.406v-8.335h8.406zm393.443 0v8.335h-8.403v-8.335h8.403zm-302.65 0v8.335h-8.406v-8.335h8.406zm80.708 0v8.335h-8.404v-8.335h8.404zm50.444 0v8.335h-8.403v-8.335h8.403zm30.263 0v8.335h-8.406v-8.335h8.406zm80.708 0v8.335h-8.406v-8.335h8.406zm-70.614 0v8.335h-8.404v-8.335h8.404zm-635.567 0v8.335h-8.406v-8.335h8.406zm776.804 0v8.335h-8.403v-8.335h8.403zm-161.416 0v8.335h-8.406v-8.335h8.406zm-706.189 0v8.335h-8.406v-8.335h8.406zm514.51 0v8.335h-8.406v-8.335h8.406zm-484.247 0v8.335h-8.406v-8.335h8.406zm645.663 0v8.335h-8.403v-8.335h8.403zm-534.691 0v8.335h-8.406v-8.335h8.406zm605.303 0v8.335h-8.406v-8.335h8.406zm-827.246 0v8.335H12.16v-8.335h8.406zm675.926 0v8.335h-8.403v-8.335h8.403zm191.68 0v8.335h-8.407v-8.335h8.406zm-514.511 0v8.335h-8.406v-8.335h8.406zm-121.056 0v8.335h-8.406v-8.335h8.406zm615.388 0v8.335h-8.404v-8.335h8.404zm-655.748 0v8.335h-8.406v-8.335h8.406zm766.719 0v8.335h-8.406v-8.335h8.406zm-796.982 0v8.335h-8.406v-8.335h8.406zm-70.615 0v8.335h-8.406v-8.335h8.406zm121.056 0v8.335h-8.406v-8.335h8.406zm131.153 0v8.335h-8.406v-8.335h8.406zm544.773 0v8.335h-8.406v-8.335h8.406zm-756.633 0v8.335h-8.406v-8.335h8.406zm756.633-10.005v8.335h-8.406v-8.335h8.406zm-847.423 0v8.335h-8.406v-8.335h8.406zm635.566 0v8.335h-8.403v-8.335h8.403zm-474.15 0v8.335h-8.407v-8.335h8.406zm756.622 0v8.335h-8.406v-8.335h8.406zm-686.011 0v8.335h-8.406v-8.335h8.406zm322.831 0v8.335h-8.406v-8.335h8.406zm393.443 0v8.335h-8.403v-8.335h8.403zm-464.066 0v8.335h-8.406v-8.335h8.406zm-403.528 0v8.335h-8.406v-8.335h8.406zm-50.444 0v8.335h-8.406v-8.335h8.406zm877.69 0v8.335h-8.403v-8.335h8.403zm-90.793 0v8.335h-8.406v-8.335h8.406zm141.237 0v8.335h-8.406v-8.335h8.406zm-867.607 0v8.335h-8.406v-8.335h8.406zm484.247 0v8.335h-8.406v-8.335h8.406zm151.322 0v8.335h-8.403v-8.335h8.403zm100.886 0v8.335h-8.406v-8.335h8.406zm-131.152 0v8.335h-8.406v-8.335h8.406zm-595.218 0v8.335h-8.406v-8.335h8.406zm585.136 0v8.335h-8.407v-8.335h8.407zm-90.804 0v8.335h-8.406v-8.335h8.406zm161.415 0v8.335h-8.406v-8.335h8.406zm-252.208 0v8.335h-8.406v-8.335h8.406zm-524.596 0v8.335h-8.406v-8.335h8.406zm353.095 0v8.335h-8.406v-8.335h8.406zm564.944 0v8.335h-8.403v-8.335h8.403zm-353.084 0v8.335h-8.403v-8.335h8.403zm423.707 0v8.335h-8.406v-8.335h8.406zm-645.65 0v8.335h-8.405v-8.335h8.406zm353.085 0v8.335h-8.404v-8.335h8.404zm70.622 0v8.335h-8.406v-8.335h8.406zm-635.566 0v8.335h-8.406v-8.335h8.406zm10.085 0v8.335h-8.406v-8.335h8.406zm181.594 0v8.335h-8.406v-8.335h8.406zm-343.01 0v8.335H12.16v-8.335h8.406zm978.576 0v8.335h-8.406v-8.335h8.406zm-443.887 0v8.335h-8.406v-8.335h8.406zm-181.594 0v8.335h-8.406v-8.335h8.406zm464.066 0v8.335h-8.406v-8.335h8.406zm-262.291 0v8.335h-8.406v-8.335h8.406zm110.971 0v8.335H678v-8.335h8.406zm161.405 0v8.335h-8.406v-8.335h8.406zm-80.697 0v8.335h-8.406v-8.335h8.406zm272.376 0v8.335h-8.406v-8.335h8.406zm-453.97 0v8.335h-8.406v-8.335h8.406zm353.095 0v8.335h-8.406v-8.335h8.406zm-343.013 0v8.335h-8.406v-8.335h8.406zm-383.358 0v8.335h-8.406v-8.335h8.406zm90.804 0v8.335h-8.406v-8.335h8.406zm322.82 0v8.335h-8.406v-8.335h8.406zm80.708 0v8.335h-8.406v-8.335h8.406zm90.801 0v8.335h-8.406v-8.335h8.406zm100.878 0v8.335h-8.406v-8.335h8.406zm-817.152 0v8.335h-8.406v-8.335h8.406zm171.5 0v8.335h-8.405v-8.335h8.406zm60.527 0v8.335h-8.406v-8.335h8.406zm514.51 0v8.335h-8.403v-8.335h8.404zm-776.811 0v8.335h-8.407v-8.335h8.407zm191.679 0v8.335h-8.406v-8.335h8.406zm-171.498 0v8.335h-8.406v-8.335h8.406zm40.356 0v8.335h-8.406v-8.335h8.406zm817.153 0v8.335h-8.407v-8.335h8.407zm-796.983 0v8.335h-8.406v-8.335h8.406zm70.623 0v8.335h-8.406v-8.335h8.406zm-10.085 0v8.335h-8.406v-8.335h8.406zm474.154 0v8.335h-8.406v-8.335h8.406zm-433.806 0v8.335h-8.406v-8.335h8.406zm817.164 0v8.335h-8.404v-8.335h8.404zm-645.663 0v8.335h-8.406v-8.335h8.406zm312.746 0v8.335h-8.406v-8.335h8.406zm10.085 0v8.335h-8.406v-8.335h8.406zm50.445 0v8.335h-8.403v-8.335h8.403zm-100.889 0v8.335h-8.406v-8.335h8.406zm181.597 0v8.335H849.5v-8.335h8.406zm-211.86 0v8.335h-8.404v-8.335h8.404zm221.945 0v8.335h-8.404v-8.335h8.404zm-766.719 0v8.335h-8.406v-8.335h8.406zm817.16 0v8.335h-8.403v-8.335h8.403zm30.264 0v8.335h-8.406v-8.335h8.406zm-605.3 0v8.335h-8.407v-8.335h8.406zm716.277 0v8.335h-8.407v-8.335h8.407zm-938.223 0v8.335h-8.406v-8.335h8.406zm867.605 0v8.335h-8.406v-8.335h8.406zm-958.398 0v8.335h-8.406v-8.335h8.406zm322.82 0v8.335h-8.405v-8.335h8.406zm524.607-9.997v8.334h-8.406V92.49h8.406zm70.612 0v8.334h-8.406V92.49h8.406zm-80.705 0v8.334h-8.404V92.49h8.404zm60.527 0v8.334h-8.407V92.49h8.407zm90.803 0v8.334h-8.406V92.49h8.406zm-453.983 0v8.334h-8.406V92.49h8.406zm413.624 0v8.334h-8.406V92.49h8.406zm-907.953 0v8.334h-8.406V92.49h8.406zm534.688 0v8.334h-8.403V92.49h8.403zm-433.802 0v8.334h-8.406V92.49h8.406zm726.36 0v8.334h-8.407V92.49h8.406zm-474.152 0v8.334h-8.406V92.49h8.406zm-232.03 0v8.334h-8.406V92.49h8.406zm544.766 0v8.334h-8.404V92.49h8.404zm-554.86 0v8.334h-8.405V92.49h8.406zm373.274 0v8.334h-8.406V92.49h8.406zm-191.68 0v8.334h-8.405V92.49h8.406zm605.304 0v8.334h-8.403V92.49h8.403zm-30.263 0v8.334h-8.406V92.49h8.406zm-80.708 0v8.334H849.5V92.49h8.406zm171.498 0v8.334h-8.406V92.49h8.406zm-928.132 0v8.334h-8.406V92.49h8.406zm746.538 0v8.334h-8.406V92.49h8.406zm-10.085 0v8.334h-8.406V92.49h8.406zm-554.86 0v8.334h-8.405V92.49h8.406zm131.153 0v8.334h-8.406V92.49h8.406zm393.443 0v8.334h-8.406V92.49h8.406zm-786.897 0v8.334H12.16V92.49h8.406zm272.387 0v8.334h-8.406V92.49h8.406zm-252.209 0v8.334h-8.406V92.49h8.406zm655.748 0v8.334h-8.403V92.49h8.403zm-302.653 0v8.334h-8.406V92.49h8.406zm322.831 0v8.334h-8.406V92.49h8.406zm-564.954 0v8.334h-8.406V92.49h8.406zm151.333 0v8.334h-8.406V92.49h8.406zm70.612 0v8.334h-8.406V92.49h8.406zm514.51 0v8.334h-8.406V92.49h8.406zm-655.748 0v8.334h-8.406V92.49h8.406zm554.862 0v8.334h-8.403V92.49h8.403zm-191.682 0v8.334h-8.406V92.49h8.406zm393.454 0v8.334h-8.406V92.49h8.406zm-70.623 0v8.334h-8.403V92.49h8.403zm-151.32 0v8.334h-8.405V92.49h8.406zm-514.51 0v8.334h-8.405V92.49h8.406zm-171.5 0v8.334h-8.406V92.49h8.406zm-30.274 0v8.334h-8.407V92.49h8.407zm302.65 0v8.334h-8.406V92.49h8.406zm-211.847 0v8.334h-8.406V92.49h8.406zm242.124 0v8.334h-8.406V92.49h8.406zm-161.416 0v8.334h-8.406V92.49h8.406zm776.801 0v8.334h-8.406V92.49h8.406zm-252.205 0v8.334h-8.407V92.49h8.407zm-20.182 0v8.334h-8.406V92.49h8.406zm-665.83 0v8.334H52.52V92.49h8.406zm343 0v8.334h-8.407V92.49h8.406zm-373.266 0v8.334h-8.406V92.49h8.406zm100.878 0v8.334h-8.406V92.49h8.406zm665.841 0v8.334h-8.406V92.49h8.406zm242.113 0v8.334h-8.406V92.49h8.406zm-948.302 0v8.334h-8.406V92.49h8.406zm615.388 0v8.334h-8.406V92.49h8.406zm50.442 0v8.334h-8.406V92.49h8.406zm-635.567 0v8.334h-8.406V92.49h8.406zm40.349 0v8.334h-8.406V92.49h8.406zm615.399 0v8.334h-8.403V92.49h8.403zm-665.833 0v8.334h-8.406V92.49h8.406zm847.416 0v8.334h-8.403V92.49h8.403zm-746.538 0v8.334h-8.406V92.49h8.406zm696.104 0v8.334h-8.406V92.49h8.406zm-221.942 0v8.334H678V92.49h8.406zm141.235 0v8.334h-8.404V92.49h8.404zm-10.094 0v8.334h-8.406V92.49h8.406zm-242.112 0v8.334h-8.406V92.49h8.406zm10.085 0v8.334h-8.406V92.49h8.406zM363.575 82.48v8.335h-8.406V82.48h8.406zm30.263 0v8.335h-8.406V82.48h8.406zm272.39 0v8.335h-8.406V82.48h8.406zm-423.72 0v8.335h-8.406V82.48h8.406zm494.332 0v8.335h-8.404V82.48h8.404zm-10.086 0v8.335h-8.406V82.48h8.406zm50.445 0v8.335h-8.403V82.48h8.403zm262.29 0v8.335h-8.405V82.48h8.406zm-232.027 0v8.335h-8.406V82.48h8.406zm-10.085 0v8.335h-8.406V82.48h8.406zm-645.662 0v8.335h-8.406V82.48h8.406zm726.37 0v8.335h-8.406V82.48h8.406zm-50.444 0v8.335h-8.404V82.48h8.404zm-474.162 0v8.335h-8.406V82.48h8.406zm514.513 0v8.335h-8.404V82.48h8.404zm80.705 0v8.335h-8.406V82.48h8.406zm-564.941 0v8.335h-8.406V82.48h8.406zm373.262 0v8.335h-8.406V82.48h8.406zm131.152 0v8.335h-8.406V82.48h8.406zm40.349 0v8.335h-8.407V82.48h8.407zm-524.596 0v8.335h-8.406V82.48h8.406zm564.955 0v8.335h-8.403V82.48h8.403zm-10.096 0v8.335h-8.403V82.48h8.403zm-675.915 0v8.335h-8.406V82.48h8.406zm433.802 0v8.335h-8.406V82.48h8.406zm-554.87 0v8.335h-8.405V82.48h8.406zm262.305 0v8.335h-8.406V82.48h8.406zm-201.764 0v8.335h-8.406V82.48h8.406zm564.944 0v8.335h-8.403V82.48h8.403zm-595.21 0v8.335h-8.406V82.48h8.406zm80.7 0v8.335h-8.406V82.48h8.406zm312.746 0v8.335h-8.406V82.48h8.406zm312.735 0v8.335h-8.406V82.48h8.406zm-484.236 0v8.335h-8.406V82.48h8.406zm292.557 0v8.335h-8.406V82.48h8.406zm-332.916 0v8.335h-8.406V82.48h8.406zm-121.056 0v8.335h-8.406V82.48h8.406zm564.943 0v8.335h-8.406V82.48h8.406zm-70.611 0v8.335h-8.407V82.48h8.407zm110.97 0v8.335h-8.405V82.48h8.406zm-595.217 0v8.335h-8.406V82.48h8.406zm645.66 0v8.335h-8.407V82.48h8.406zm-736.453 0v8.335h-8.406V82.48h8.406zm595.218 0v8.335h-8.406V82.48h8.406zm-726.37 0v8.335h-8.407V82.48h8.406zm897.87 0v8.335h-8.405V82.48h8.406zm-504.427 0v8.335h-8.406V82.48h8.406zm413.624 0v8.335h-8.406V82.48h8.406zm-10.085 0v8.335h-8.406V82.48h8.406zm80.707 0v8.335h-8.403V82.48h8.403zm-736.452 0v8.335h-8.406V82.48h8.406zm90.793-9.994v8.332h-8.406v-8.332h8.406zm585.133 0v8.332H849.5v-8.332h8.406zm-50.445 0v8.332h-8.406v-8.332h8.406zm-645.662 0v8.332h-8.406v-8.332h8.406zm191.679 0v8.332h-8.406v-8.332h8.406zm-90.79 0v8.332h-8.406v-8.332h8.406zm-50.445 0v8.332h-8.406v-8.332h8.406zm201.775 0v8.332h-8.406v-8.332h8.406zm-40.36 0v8.332h-8.405v-8.332h8.406zm30.264 0v8.332h-8.406v-8.332h8.406zm484.247 0v8.332h-8.406v-8.332h8.406zm40.349 0v8.332h-8.407v-8.332h8.407zm-534.68 0v8.332h-8.407v-8.332h8.406zm332.915 0v8.332h-8.406v-8.332h8.406zm-484.246 0v8.332h-8.406v-8.332h8.406zm575.04 0v8.332h-8.407v-8.332h8.406zm-393.444 0v8.332h-8.406v-8.332h8.406zm413.622 0v8.332h-8.406v-8.332h8.406zm-706.19 0v8.332h-8.406v-8.332h8.406zm746.549 0v8.332h-8.406v-8.332h8.406zm-443.898 0v8.332h-8.406v-8.332h8.406zm-292.555 0v8.332h-8.406v-8.332h8.406zm625.482 0v8.332h-8.406v-8.332h8.406zm-383.358 0v8.332h-8.406v-8.332h8.406zm373.262 0v8.332h-8.406v-8.332h8.406zm110.974 0v8.332h-8.404v-8.332h8.404zm-524.596 0v8.332h-8.406v-8.332h8.406zm484.245 0v8.332h-8.404v-8.332h8.404zm-625.482 0v8.332h-8.406v-8.332h8.406zm514.51 0v8.332h-8.406v-8.332h8.406zm-464.065 0v8.332h-8.406v-8.332h8.406zm544.773 0v8.332h-8.406v-8.332h8.406zm-20.178 0v8.332h-8.403v-8.332h8.403zm-413.624 0v8.332h-8.406v-8.332h8.406zm484.236 0v8.332h-8.406v-8.332h8.406zm-665.83 0v8.332h-8.406v-8.332h8.406zm605.303 0v8.332h-8.403v-8.332h8.403zm-635.57 0v8.332h-8.405v-8.332h8.406zm514.514 0v8.332h-8.406v-8.332h8.406zm80.708 0v8.332h-8.407v-8.332h8.407zm-524.596 0v8.332h-8.406v-8.332h8.406zm121.056-10v8.335h-8.406v-8.335h8.406zm50.442 0v8.335h-8.406v-8.335h8.406zm30.266 0v8.335h-8.406v-8.335h8.406zm343.01 0v8.335h-8.406v-8.335h8.406zm-524.606 0v8.335h-8.406v-8.335h8.406zm171.511 0v8.335h-8.406v-8.335h8.406zm383.358 0v8.335h-8.406v-8.335h8.406zm-564.955 0v8.335h-8.406v-8.335h8.406zm151.334 0v8.335h-8.406v-8.335h8.406zm50.43 0v8.335h-8.405v-8.335h8.406zm373.276 0v8.335h-8.406v-8.335h8.406zm-30.263 0v8.335h-8.403v-8.335h8.403zm-524.595 0v8.335h-8.406v-8.335h8.406zm564.943 0v8.335h-8.406v-8.335h8.406zm-373.264 0v8.335h-8.406v-8.335h8.406zm-221.943 0v8.335h-8.406v-8.335h8.406zm110.971 0v8.335h-8.406v-8.335h8.406zm-70.622 0v8.335h-8.406v-8.335h8.406zm564.952 0v8.335h-8.404v-8.335h8.404zm-464.066 0v8.335h-8.406v-8.335h8.406zm-10.096 0v8.335h-8.406v-8.335h8.406zm50.444 0v8.335h-8.406v-8.335h8.406zm383.361 0v8.335h-8.403v-8.335h8.403zm-110.974 0v8.335h-8.406v-8.335h8.406zm-302.65 0v8.335h-8.406v-8.335h8.406zm544.773 0v8.335h-8.403v-8.335h8.403zm-746.537 0v8.335h-8.406v-8.335h8.406zM303.048 52.48v8.332h-8.406V52.48h8.406zm110.971 0v8.332h-8.406V52.48h8.406zm282.472 0v8.332h-8.403V52.48h8.403zm-554.859 0v8.332h-8.406V52.48h8.406zm675.915 0v8.332h-8.406V52.48h8.406zm-504.417 0v8.332h-8.406V52.48h8.406zm514.51 0v8.332h-8.403V52.48h8.404zm-433.802 0v8.332h-8.406V52.48h8.406zm50.445 0v8.332h-8.406V52.48h8.406zm-110.972 0v8.332h-8.406V52.48h8.406zm-10.096 0v8.332h-8.406V52.48h8.406zm383.361 0v8.332h-8.406V52.48h8.406zm-332.916 0v8.332h-8.406V52.48h8.406zm-171.5 0v8.332h-8.407V52.48h8.406zm-40.36 0v8.332h-8.406V52.48h8.406zm272.387 0v8.332h-8.406V52.48h8.406zm-90.79 0v8.332h-8.407V52.48h8.406zm-131.153 0v8.332h-8.406V52.48h8.406zm211.86 0v8.332h-8.406V52.48h8.406zm-20.18 0v8.332h-8.407V52.48h8.406zm403.538 0v8.332h-8.406V52.48h8.406zm110.971 0v8.332h-8.403V52.48h8.403zm-80.707 0v8.332h-8.406V52.48h8.406zm-484.247 0v8.332h-8.406V52.48h8.406zm30.277 0v8.332h-8.406V52.48h8.406zm413.621 0v8.332h-8.406V52.48h8.406zm-534.688 0v8.332h-8.406V52.48h8.406zm-30.267 0v8.332h-8.406V52.48h8.406zm453.984 0v8.332H678V52.48h8.406zm-322.831 0v8.332h-8.406V52.48h8.406zm60.53-10v8.335h-8.407V42.48h8.406zm-131.153 0v8.335h-8.406V42.48h8.406zm60.527 0v8.335h-8.406V42.48h8.406zm10.096 0v8.335h-8.406V42.48h8.406zm30.263 0v8.335h-8.406V42.48h8.406zm161.416 0v8.335h-8.406V42.48h8.406zm20.18 0v8.335h-8.405V42.48h8.406zm-201.774 0v8.335h-8.406V42.48h8.406zm70.623 0v8.335h-8.406V42.48h8.406zm-272.387 0v8.335h-8.406V42.48h8.406zm151.32 0v8.335h-8.407V42.48h8.406zm-80.708 0v8.335h-8.406V42.48h8.406zm10.096 0v8.335h-8.406V42.48h8.406zm90.792 0v8.335h-8.406V42.48h8.406zm-30.266 0v8.335h-8.406V42.48h8.406zm232.03 0v8.335h-8.406V42.48h8.406zm-282.471 0v8.335h-8.406V42.48h8.406zm171.498 0v8.335h-8.406V42.48h8.406zm-50.431 0v8.335h-8.406V42.48h8.406zm-161.416 0v8.335h-8.406V42.48h8.406zm-10.096 0v8.335h-8.406V42.48h8.406zm121.067 0v8.335h-8.406V42.48h8.406zm70.612 0v8.335h-8.406V42.48h8.406zm10.096 0v8.335h-8.406V42.48h8.406zm-110.971 0v8.335h-8.406V42.48h8.406zm504.414-9.997v8.335h-8.406v-8.335h8.406zm-524.595 0v8.335h-8.406v-8.335h8.406zm-30.263 0v8.335h-8.406v-8.335h8.406zm110.97 0v8.335h-8.405v-8.335h8.406zm423.71 0v8.335h-8.403v-8.335h8.403zm-383.36 0v8.335h-8.407v-8.335h8.406zm-30.264 0v8.335h-8.406v-8.335h8.406zm201.775 0v8.335h-8.406v-8.335h8.406zm-221.956 0v8.335h-8.406v-8.335h8.406zm191.681 0v8.335h-8.406v-8.335h8.406zm-151.322 0v8.335h-8.406v-8.335h8.406zm-50.442 0v8.335h-8.406v-8.335h8.406zm453.981 0v8.335h-8.406v-8.335h8.406zm-554.87 0v8.335h-8.405v-8.335h8.406zm141.249 0v8.335h-8.406v-8.335h8.406zm-110.982 0v8.335h-8.406v-8.335h8.406zm-40.352 0v8.335h-8.406v-8.335h8.406zm302.653 0v8.335h-8.406v-8.335h8.406zm-312.735 0v8.335h-8.406v-8.335h8.406zm90.79 0v8.335h-8.406v-8.335h8.406zm10.085 0v8.335h-8.406v-8.335h8.406zm110.972 0v8.335h-8.406v-8.335h8.406zm-171.498 0v8.335h-8.406v-8.335h8.406zm292.565 0v8.335h-8.406v-8.335h8.406zm-131.15 0v8.335h-8.406v-8.335h8.406zm-10.085 0v8.335h-8.406v-8.335h8.406zm-80.708 0v8.335h-8.406v-8.335h8.406zm110.972 0v8.335h-8.406v-8.335h8.406zm-10.096-10.008v8.335h-8.406v-8.335h8.406zm353.097 0v8.335h-8.403v-8.335h8.403zm-393.446 0v8.335h-8.406v-8.335h8.406zm252.209 0v8.335h-8.404v-8.335h8.404zm-383.358 0v8.335h-8.406v-8.335h8.406zm10.085 0v8.335h-8.406v-8.335h8.406zm40.356 0v8.335h-8.406v-8.335h8.406zm50.445 0v8.335h-8.406v-8.335h8.406zm-110.971 0v8.335h-8.406v-8.335h8.406zm161.415 0v8.335h-8.406v-8.335h8.406zm10.085 0v8.335h-8.406v-8.335h8.406zm-141.237 0v8.335h-8.406v-8.335h8.406zm40.348 0v8.335h-8.406v-8.335h8.406zm30.264 0v8.335h-8.406v-8.335h8.406zm100.889 0v8.335h-8.406v-8.335h8.406zm-10.085 0v8.335h-8.406v-8.335h8.406zm-70.623 0v8.335h-8.406v-8.335h8.406zm-151.32 0v8.335h-8.406v-8.335h8.406zm161.416 0v8.335h-8.406v-8.335h8.406zm-90.804 0v8.335h-8.406v-8.335h8.406zm-50.444 0v8.335h-8.406v-8.335h8.406zm161.415 0v8.335h-8.406v-8.335h8.406zm-60.527 0v8.335h-8.406v-8.335h8.406zm-10.085 0v8.335h-8.406v-8.335h8.406zm-50.444-9.997v8.332h-8.406v-8.332h8.406zm110.971 0v8.332h-8.406v-8.332h8.406zm10.085 0v8.332h-8.406v-8.332h8.406zm10.096 0v8.332h-8.406v-8.332h8.406zm10.085 0v8.332h-8.406v-8.332h8.406zm10.083 0v8.332h-8.406v-8.332h8.406zm-131.139 0v8.332h-8.406v-8.332h8.406zm10.082 0v8.332h-8.406v-8.332h8.406zm-60.526 0v8.332h-8.406v-8.332h8.406zm80.707 0v8.332h-8.406v-8.332h8.406zm-60.537 0v8.332h-8.406v-8.332h8.406zm80.705 0v8.332h-8.406v-8.332h8.406zm-60.527 0v8.332h-8.406v-8.332h8.406zm70.623 0v8.332h-8.406v-8.332h8.406zm-100.886 0v8.332h-8.406v-8.332h8.406zm110.97 0v8.332h-8.405v-8.332h8.406zm-131.151 0v8.332h-8.406v-8.332h8.406zm141.248 0v8.332h-8.406v-8.332h8.406zm10.082-9.998v8.335h-8.406V2.481h8.406zm10.085 0v8.335h-8.406V2.481h8.406zm10.096 0v8.335h-8.406V2.481h8.406zm475.83 378.376h8.406v-8.337h-8.406v8.337zm10.093 0h8.406v-8.337h-8.406v8.337zm20.17 0h8.407v-8.337h-8.407v8.337zm-645.651 9.992h8.406v-8.332h-8.406v8.332zm10.085 0h8.406v-8.332h-8.406v8.332zm10.096 0h8.406v-8.332h-8.406v8.332zm10.082 0h8.406v-8.332h-8.406v8.332zm10.085 0h8.406v-8.332h-8.406v8.332zm10.096 0h8.406v-8.332h-8.406v8.332zm10.085 0h8.406v-8.332h-8.406v8.332zm10.083 0h8.406v-8.332h-8.406v8.332zm10.096 0h8.406v-8.332h-8.406v8.332zm10.085 0h8.406v-8.332h-8.406v8.332zm10.096 0h8.406v-8.332h-8.406v8.332zm161.404 0h8.406v-8.332h-8.406v8.332zm10.094 0h8.406v-8.332h-8.406v8.332zm10.085 0h8.406v-8.332h-8.406v8.332zm10.096 0h8.406v-8.332h-8.406v8.332zm10.085 0h8.406v-8.332h-8.406v8.332zm10.082 0h8.406v-8.332h-8.406v8.332zm10.099 0h8.403v-8.332h-8.403v8.332zm10.082 0h8.406v-8.332h-8.406v8.332zm30.266 0h8.404v-8.332h-8.404v8.332zm232.036 0h8.406v-8.332h-8.406v8.332zm10.085 0h8.406v-8.332h-8.406v8.332zm10.085 0h8.406v-8.332h-8.406v8.332zm10.093 0h8.406v-8.332h-8.406v8.332zm20.17 0h8.407v-8.332h-8.407v8.332zM284.546 400.86h8.406v-8.332h-8.406v8.332zm10.096 0h8.406v-8.332h-8.406v8.332zm10.082 0h8.406v-8.332h-8.406v8.332zm10.085 0h8.406v-8.332h-8.406v8.332zm10.096 0h8.406v-8.332h-8.406v8.332zm10.085 0h8.406v-8.332h-8.406v8.332zm10.083 0h8.406v-8.332h-8.406v8.332zm10.096 0h8.406v-8.332h-8.406v8.332zm10.085 0h8.406v-8.332h-8.406v8.332zm10.096 0h8.406v-8.332h-8.406v8.332zm161.404 0h8.406v-8.332h-8.406v8.332zm10.094 0h8.406v-8.332h-8.406v8.332zm10.085 0h8.406v-8.332h-8.406v8.332zm10.096 0h8.406v-8.332h-8.406v8.332zm10.085 0h8.406v-8.332h-8.406v8.332zm10.082 0h8.406v-8.332h-8.406v8.332zm10.099 0h8.403v-8.332h-8.403v8.332zm30.26 0h8.407v-8.332h-8.406v8.332zm10.088 0h8.404v-8.332h-8.404v8.332zm221.945 0h8.404v-8.332h-8.404v8.332zm10.091 0h8.406v-8.332h-8.406v8.332zm10.085 0h8.406v-8.332h-8.406v8.332zm10.085 0h8.406v-8.332h-8.406v8.332zm10.093 0h8.406v-8.332h-8.406v8.332zm10.088 0h8.403v-8.332h-8.403v8.332zm10.082 0h8.407v-8.332h-8.407v8.332zm10.097 0h8.406v-8.332h-8.406v8.332zm-635.567 9.997h8.406v-8.337h-8.406v8.337zm10.082 0h8.406v-8.337h-8.406v8.337zm10.085 0h8.406v-8.337h-8.406v8.337zm10.096 0h8.406v-8.337h-8.406v8.337zm10.085 0h8.406v-8.337h-8.406v8.337zm10.083 0h8.406v-8.337h-8.406v8.337zm10.096 0h8.406v-8.337h-8.406v8.337zm10.085 0h8.406v-8.337h-8.406v8.337zm171.5 0h8.406v-8.337h-8.406v8.337zm10.094 0h8.406v-8.337h-8.406v8.337zm10.085 0h8.406v-8.337h-8.406v8.337zm10.096 0h8.406v-8.337h-8.406v8.337zm10.085 0h8.406v-8.337h-8.406v8.337zm10.082 0h8.406v-8.337h-8.406v8.337zm10.099 0h8.403v-8.337h-8.403v8.337zm30.26 0h8.407v-8.337h-8.406v8.337zm10.088 0h8.404v-8.337h-8.404v8.337zm201.762 0h8.406v-8.337h-8.406v8.337zm10.096 0h8.406v-8.337H849.5v8.337zm10.087 0h8.404v-8.337h-8.404v8.337zm10.091 0h8.406v-8.337h-8.406v8.337zm10.085 0h8.406v-8.337h-8.406v8.337zm10.085 0h8.406v-8.337h-8.406v8.337zm10.093 0h8.406v-8.337h-8.406v8.337zm10.088 0h8.403v-8.337h-8.403v8.337zm10.082 0h8.407v-8.337h-8.407v8.337zm10.097 0h8.406v-8.337h-8.406v8.337zm10.082 0h8.406v-8.337h-8.406v8.337zm50.444 0h8.406v-8.337h-8.406v8.337zm-706.189 10h8.406v-8.337h-8.406v8.337zm10.096 0h8.406v-8.337h-8.406v8.337zm10.082 0h8.406v-8.337h-8.406v8.337zm10.085 0h8.406v-8.337h-8.406v8.337zm10.096 0h8.406v-8.337h-8.406v8.337zm10.085 0h8.406v-8.337h-8.406v8.337zm10.083 0h8.406v-8.337h-8.406v8.337zm201.775 0h8.406v-8.337h-8.406v8.337zm10.085 0h8.406v-8.337h-8.406v8.337zm10.096 0h8.406v-8.337h-8.406v8.337zm10.085 0h8.406v-8.337h-8.406v8.337zm10.082 0h8.406v-8.337h-8.406v8.337zm10.099 0h8.403v-8.337h-8.403v8.337zm30.26 0h8.407v-8.337h-8.406v8.337zm211.85 0h8.406v-8.337h-8.406v8.337zm10.096 0h8.406v-8.337H849.5v8.337zm10.087 0h8.404v-8.337h-8.404v8.337zm10.091 0h8.406v-8.337h-8.406v8.337zm10.085 0h8.406v-8.337h-8.406v8.337zm10.085 0h8.406v-8.337h-8.406v8.337zm10.093 0h8.406v-8.337h-8.406v8.337zm10.088 0h8.403v-8.337h-8.403v8.337zm10.082 0h8.407v-8.337h-8.407v8.337zm10.097 0h8.406v-8.337h-8.406v8.337zm10.082 0h8.406v-8.337h-8.406v8.337zm10.088 0h8.403v-8.337h-8.403v8.337zM284.546 430.86h8.406v-8.332h-8.406v8.332zm10.096 0h8.406v-8.332h-8.406v8.332zm10.082 0h8.406v-8.332h-8.406v8.332zm10.085 0h8.406v-8.332h-8.406v8.332zm10.096 0h8.406v-8.332h-8.406v8.332zm10.085 0h8.406v-8.332h-8.406v8.332zm10.083 0h8.406v-8.332h-8.406v8.332zm201.775 0h8.406v-8.332h-8.406v8.332zm10.085 0h8.406v-8.332h-8.406v8.332zm10.096 0h8.406v-8.332h-8.406v8.332zm10.085 0h8.406v-8.332h-8.406v8.332zm10.082 0h8.406v-8.332h-8.406v8.332zm252.209 0h8.406v-8.332h-8.406v8.332zm10.096 0h8.406v-8.332H849.5v8.332zm10.087 0h8.404v-8.332h-8.404v8.332zm10.091 0h8.406v-8.332h-8.406v8.332zm10.085 0h8.406v-8.332h-8.406v8.332zm10.085 0h8.406v-8.332h-8.406v8.332zm10.093 0h8.406v-8.332h-8.406v8.332zm10.088 0h8.403v-8.332h-8.403v8.332zm10.082 0h8.407v-8.332h-8.407v8.332zm10.097 0h8.406v-8.332h-8.406v8.332zm10.082 0h8.406v-8.332h-8.406v8.332zm10.088 0h8.403v-8.332h-8.403v8.332zm-665.833 10h8.406v-8.332h-8.406v8.332zm10.096 0h8.406v-8.332h-8.406v8.332zm10.082 0h8.406v-8.332h-8.406v8.332zm10.085 0h8.406v-8.332h-8.406v8.332zm10.096 0h8.406v-8.332h-8.406v8.332zm10.085 0h8.406v-8.332h-8.406v8.332zm221.943 0h8.406v-8.332h-8.406v8.332zm10.096 0h8.406v-8.332h-8.406v8.332zm10.085 0h8.406v-8.332h-8.406v8.332zm262.29 0h8.407v-8.332h-8.406v8.332zm10.097 0h8.406v-8.332H849.5v8.332zm10.087 0h8.404v-8.332h-8.404v8.332zm10.091 0h8.406v-8.332h-8.406v8.332zm10.085 0h8.406v-8.332h-8.406v8.332zm10.085 0h8.406v-8.332h-8.406v8.332zm10.093 0h8.406v-8.332h-8.406v8.332zm10.088 0h8.403v-8.332h-8.403v8.332zm10.082 0h8.407v-8.332h-8.407v8.332zm10.097 0h8.406v-8.332h-8.406v8.332zm10.082 0h8.406v-8.332h-8.406v8.332zm10.088 0h8.403v-8.332h-8.403v8.332zm-665.833 9.997h8.406v-8.337h-8.406v8.337zm10.096 0h8.406v-8.337h-8.406v8.337zm10.082 0h8.406v-8.337h-8.406v8.337zm10.085 0h8.406v-8.337h-8.406v8.337zm10.096 0h8.406v-8.337h-8.406v8.337zm10.085 0h8.406v-8.337h-8.406v8.337zm221.943 0h8.406v-8.337h-8.406v8.337zm282.472 0h8.406v-8.337h-8.406v8.337zm10.096 0h8.406v-8.337H849.5v8.337zm50.441 0h8.406v-8.337h-8.406v8.337zm10.088 0h8.403v-8.337h-8.403v8.337zm10.082 0h8.407v-8.337h-8.407v8.337zm10.097 0h8.406v-8.337h-8.406v8.337zm10.082 0h8.406v-8.337h-8.406v8.337zm70.625 0h8.406v-8.337h-8.406v8.337zm-726.37 10.006h8.406v-8.332h-8.406v8.332zm10.096 0h8.406v-8.332h-8.406v8.332zm10.082 0h8.406v-8.332h-8.406v8.332zm10.085 0h8.406v-8.332h-8.406v8.332zm10.096 0h8.406v-8.332h-8.406v8.332zm595.207 0h8.407v-8.332h-8.407v8.332zm10.097 0h8.406v-8.332h-8.406v8.332zm10.082 0h8.406v-8.332h-8.406v8.332zm-655.745 9.997h8.406v-8.332h-8.406v8.332zm10.096 0h8.406v-8.332h-8.406v8.332zm10.082 0h8.406v-8.332h-8.406v8.332zm716.275 0h8.406v-8.332h-8.406v8.332zM274.46 480.871h8.406v-8.337h-8.406v8.337zm10.085 0h8.406v-8.337h-8.406v8.337zm10.096 0h8.406v-8.337h-8.406v8.337zm635.567 0h8.406v-8.337h-8.406v8.337zm80.707 0h8.406v-8.337h-8.406v8.337zm-736.455 9.992h8.406v-8.332h-8.406v8.332zm10.085 0h8.406v-8.332h-8.406v8.332zm10.096 0h8.406v-8.332h-8.406v8.332zm706.181 0h8.403v-8.332h-8.403v8.332zm-726.362 10h8.406v-8.332h-8.406v8.332zm10.085 0h8.406v-8.332h-8.406v8.332zm10.096 0h8.406v-8.332h-8.406v8.332zm-20.181 10.008h8.406v-8.332h-8.406v8.332zm10.085 0h8.406v-8.332h-8.406v8.332zm-10.085 10h8.406v-8.337h-8.406v8.337zm10.085 0h8.406v-8.337h-8.406v8.337z" fill="#C2C8CE" stroke="#FFF" stroke-width="3" fill-rule="evenodd"/></svg>