<svg width="597" height="597" xmlns="http://www.w3.org/2000/svg"><g transform="translate(1 1)" fill="none" fill-rule="evenodd"><path d="M508 97.73C454.755 37.773 377.125 0 290.683 0 130.143 0 0 130.285 0 291m71 206c53.208 60.123 130.784 98 217.165 98 53.569 0 103.75-14.566 146.835-39.971M494.812 514c58.37-53.193 95-129.82 95-215" stroke="#02A6FB" stroke-width="2" stroke-dasharray="2,10"/><circle stroke="#161616" stroke-width="2" fill="#FFF" cx="31.812" cy="160" r="5"/><circle stroke="#161616" stroke-width="2" fill="#FFF" cx="589.812" cy="294" r="5"/><g fill="#28384E"><path fill-opacity=".2" d="M486.945 553.41l-8.899 6.465-6.466-8.9 8.9-6.465z"/><path d="M482.755 552.746l-4.045 2.939-2.94-4.046 4.046-2.938z"/><path fill-opacity=".2" d="M474.602 536.42l-8.9 6.466-6.465-8.9 8.9-6.465z"/><path d="M470.411 535.756l-4.045 2.94-2.939-4.046 4.045-2.939z"/><path fill-opacity=".2" d="M462.258 519.43l-8.899 6.466-6.466-8.899 8.9-6.466z"/><path d="M458.068 518.767l-4.045 2.939-2.94-4.045 4.046-2.94z"/></g></g></svg>