<svg width="724" height="728" xmlns="http://www.w3.org/2000/svg"><g fill="none" fill-rule="evenodd"><path d="M118.591 115C46.464 178.975 1 272.401 1 376.458M92 609c63.85 72.147 156.94 117.6 260.599 117.6 64.282 0 124.5-17.48 176.201-47.966M591 634c70.045-63.832 114-155.785 114-258" stroke="#A4A6A8" stroke-dasharray="2,10" stroke-width="2"/><g fill="#A4A6A8"><path fill-opacity=".2" d="M.8 514.987l5.5 9.526 9.527-5.5-5.5-9.526z"/><path d="M4.898 516.085l2.5 4.33 4.33-2.5-2.5-4.33z"/><path fill-opacity=".2" d="M18.987 504.487l5.5 9.526 9.526-5.5-5.5-9.526z"/><path d="M23.085 505.585l2.5 4.33 4.33-2.5-2.5-4.33z"/><path fill-opacity=".2" d="M37.173 493.987l5.5 9.526 9.527-5.5-5.5-9.526z"/><path d="M41.271 495.085l2.5 4.33 4.33-2.5-2.5-4.33z"/></g><g fill="#A4A6A8"><path fill-opacity=".2" d="M669.48 322.046l2.846 10.625 10.626-2.847-2.847-10.625z"/><path d="M673.154 324.167l1.294 4.83 4.83-1.294-1.295-4.83z"/><path fill-opacity=".2" d="M689.764 316.61l2.847 10.626 10.625-2.847-2.847-10.625z"/><path d="M693.438 318.732l1.294 4.83 4.83-1.294-1.294-4.83z"/><path fill-opacity=".2" d="M710.048 311.176l2.847 10.625 10.626-2.847-2.847-10.625z"/><path d="M713.723 313.297l1.294 4.83 4.83-1.294-1.295-4.83z"/></g><g fill="#A4A6A8"><path fill-opacity=".2" d="M342 53h11V42h-11z"/><path d="M345 50h5v-5h-5z"/><path fill-opacity=".2" d="M342 32h11V21h-11z"/><path d="M345 29h5v-5h-5z"/><path fill-opacity=".2" d="M342 11h11V0h-11z"/><path d="M345 8h5V3h-5z"/></g></g></svg>