<?xml version="1.0" encoding="UTF-8"?>
<svg width="140px" height="35px" viewBox="0 0 140 35" version="1.1" xmlns="http://www.w3.org/2000/svg" xmlns:xlink="http://www.w3.org/1999/xlink">
    <!-- Generator: Sketch 51.3 (57544) - http://www.bohemiancoding.com/sketch -->
    <title>snapcall-logo</title>
    <desc>Created with Sketch.</desc>
    <defs>
        <polygon id="path-1" points="0.303413268 0.0362603037 3.51579176 0.0362603037 3.51579176 17.9718583 0.303413268 17.9718583"></polygon>
        <polygon id="path-3" points="6.71796975e-06 0.207114967 34.116593 0.207114967 34.116593 34.3166772 6.71796975e-06 34.3166772"></polygon>
    </defs>
    <g id="Page-1" stroke="none" stroke-width="1" fill="none" fill-rule="evenodd">
        <g id="snapcall-logo">
            <g id="Group-3" transform="translate(136.355748, 7.992451)">
                <mask id="mask-2" fill="white">
                    <use xlink:href="#path-1"></use>
                </mask>
                <g id="Clip-2"></g>
                <path d="M3.51582213,17.9659783 C2.54493275,17.9659783 1.5737397,17.9583861 0.603154013,17.9717484 C0.368707158,17.9747852 0.303110629,17.9158698 0.303414317,17.6750456 C0.310399132,11.898603 0.310399132,6.12155315 0.303718004,0.344806941 C0.303414317,0.10732321 0.364151844,0.0399045553 0.604065076,0.0423340564 C1.57434707,0.052659436 2.54523644,0.040208243 3.51582213,0.0362603037 L3.51582213,17.9659783 Z" id="Fill-1" fill="#92939D" mask="url(#mask-2)"></path>
            </g>
            <g id="Group-6" transform="translate(0.000000, 0.096573)">
                <mask id="mask-4" fill="white">
                    <use xlink:href="#path-3"></use>
                </mask>
                <g id="Clip-5"></g>
                <path d="M20.5506638,5.73498915 C19.7270629,5.73498915 18.768321,6.03563991 17.6307072,6.7508243 C15.5850672,8.03724512 13.8989935,9.7275705 12.342898,11.5527332 C11.4099696,12.6469197 10.5909241,13.8200651 10.1721388,15.2209761 C9.79040347,16.4988937 9.91643384,17.6957267 10.8114013,18.7416269 C11.2459783,19.2490889 11.7449371,19.6949024 12.2350889,20.1480043 C12.6787766,20.5582863 13.0832885,20.5610195 13.510577,20.1391974 C14.1844599,19.4738178 14.85318,18.8032755 15.5197744,18.1306074 C15.9270195,17.719718 15.9221605,17.3155098 15.5115748,16.8939913 C15.2743948,16.6504338 15.0314447,16.4126464 14.7912278,16.1721258 C14.0684512,15.4493492 14.0645033,14.7772885 14.7781692,14.0633189 C15.1729631,13.6685249 15.5689718,13.2743384 15.9628547,12.8783297 C16.7764338,12.0611063 17.5824208,11.235987 18.4038959,10.4266594 C18.9960868,9.84327549 19.7534837,9.85785249 20.3399046,10.4391106 C20.6241562,10.7212364 20.8986898,11.014295 21.1932668,11.2851844 C21.5628547,11.6256182 22.011705,11.6274403 22.3648937,11.2818438 C23.0679306,10.5939913 23.763679,9.89854664 24.4506204,9.19520607 C24.8320521,8.80496746 24.831141,8.40683297 24.4494056,8.00748373 C24.0051106,7.54284165 23.5583861,7.07759219 23.0822039,6.64635575 C22.4104469,6.03867679 21.6141779,5.71585683 20.5506638,5.73498915 M24.1448069,18.0358568 C24.1599913,17.1114317 23.8159132,16.3263991 23.1954794,15.6643601 C22.789449,15.2309978 22.3518351,14.8264859 21.9193839,14.4183297 C21.4182993,13.9451844 21.0368677,13.9561171 20.5412495,14.4517354 C19.9056312,15.0870499 19.274872,15.7272234 18.641987,16.3652711 C18.1843297,16.826269 18.1788633,17.2152928 18.6374317,17.6835792 C18.9092321,17.9611497 19.2059349,18.2144252 19.4707505,18.4977657 C20.0170846,19.0820607 20.0012928,19.8124295 19.4358265,20.3803254 C18.1931367,21.6278742 16.9480174,22.8736009 15.6998612,24.1156833 C15.137128,24.6756833 14.3961302,24.680846 13.8166941,24.1314751 C13.5172581,23.8472234 13.2363471,23.5435358 12.9375184,23.2589805 C12.5582126,22.8972885 12.1160434,22.8975922 11.7452408,23.2638395 C11.0455445,23.9553362 10.3494924,24.6504772 9.65890672,25.3507809 C9.29782213,25.7167245 9.29296312,26.1388503 9.6546551,26.5120824 C10.1189935,26.9916052 10.5815098,27.475987 11.0804685,27.9178525 C11.8096226,28.5637961 12.6727028,28.856551 13.6575618,28.7927766 C14.7468894,28.7226247 15.6919653,28.2755965 16.5972581,27.7149892 C17.6759566,27.0465727 18.6304469,26.2211497 19.5427245,25.3465293 C20.8774317,24.0670933 22.1456312,22.7275271 23.1128764,21.137115 C23.6920087,20.1853579 24.1347852,19.1807592 24.1448069,18.0358568 M17.059167,34.316551 C7.65730152,34.3526898 -0.141093275,26.6253579 0.00194360087,16.9926898 C0.138906725,7.774859 7.6822039,0.152906725 17.1672798,0.207266811 C26.5764338,0.26132321 34.2226811,7.95616052 34.1154794,17.4661388 C34.0097961,26.829436 26.3647636,34.3426681 17.059167,34.316551" id="Fill-4" fill="#92939D" mask="url(#mask-4)"></path>
            </g>
            <path d="M99.0940954,17.4649544 C99.1171757,14.933718 99.7846811,12.7499002 101.502338,10.9581432 C102.721341,9.68629935 104.222772,8.95896746 105.938,8.65011714 C108.653879,8.16148373 111.145028,8.66135358 113.349193,10.3762777 C113.819605,10.7422213 114.242642,11.1588807 114.634399,11.6089458 C114.755874,11.7483384 114.760126,11.8279046 114.610104,11.9530239 C113.89249,12.5512885 113.179128,13.1553232 112.476698,13.7715054 C112.3121,13.9160607 112.236785,13.9194013 112.08403,13.750551 C111.322382,12.9078178 110.415267,12.2755401 109.314095,11.9533275 C106.233488,11.0513753 103.184161,13.0548026 102.769931,16.2371453 C102.559779,17.8530672 102.733792,19.3900304 103.681297,20.7614837 C105.273228,23.0664729 108.54121,23.5693796 110.962512,21.899705 C111.394659,21.6014837 111.787935,21.2592278 112.118651,20.851679 C112.228586,20.716538 112.29479,20.7062126 112.429627,20.8243471 C113.151796,21.4548026 113.880039,22.0779696 114.614356,22.6950629 C114.765592,22.8220043 114.751015,22.9058221 114.631362,23.0415705 C113.019996,24.873718 111.027805,25.954846 108.570972,26.1076009 C106.536568,26.2339349 104.604204,25.8807462 102.867414,24.7604425 C100.409367,23.1748894 99.2778265,20.8416573 99.116872,17.9784902 C99.1053319,17.7728937 99.0986508,17.5669935 99.0940954,17.4649544" id="Fill-7" fill="#92939D"></path>
            <path d="M49.1524816,8.47252061 C51.3569501,8.4946898 53.1626768,9.23295445 54.7743471,10.5017614 C54.9198134,10.6162516 54.93682,10.6930846 54.8168633,10.8461432 C54.2480564,11.5719566 53.6841085,12.3020217 53.1383818,13.0451453 C52.9907896,13.2461866 52.905757,13.2012408 52.7466247,13.0742993 C51.992872,12.4742126 51.1844555,11.9628026 50.2472755,11.6976833 C49.4935228,11.4844946 48.7373406,11.4377267 48.0160824,11.8218915 C46.9273623,12.4013275 46.8347375,13.8110456 47.8460174,14.5195488 C48.6176876,15.0601128 49.5162993,15.3392017 50.379987,15.6872278 C51.2218091,16.0264469 52.0748677,16.342282 52.8778178,16.7683557 C54.1864078,17.4619783 55.1381649,18.4407636 55.3279696,19.9856226 C55.6887505,22.9210672 54.2431974,25.1358612 51.3441952,25.8738221 C48.2131757,26.6706985 45.4778612,25.8221952 43.1449328,23.6122603 C42.9973406,23.472564 42.9976443,23.385102 43.1267115,23.2299176 C43.7088807,22.5302213 44.2843688,21.8241475 44.8449761,21.107141 C45.006538,20.9006334 45.0861041,20.937987 45.2458438,21.107141 C46.1872755,22.1044512 47.3121345,22.7856226 48.6826768,23.0030629 C49.3878395,23.1151236 50.0884469,23.0814143 50.7547375,22.7886594 C51.3703124,22.5180738 51.7444555,22.0634534 51.789705,21.3737787 C51.833436,20.7041475 51.5977744,20.1596356 51.0347375,19.7821518 C50.4152148,19.3664035 49.7155184,19.1243644 49.0170369,18.8808069 C47.9532191,18.5097007 46.9079262,18.1018482 45.9315705,17.5224121 C43.0687072,15.8241909 43.0431974,12.3764252 44.6090108,10.5114794 C45.5774707,9.35837744 46.8335228,8.74644685 48.3045857,8.53872451 C48.6289241,8.49256399 48.9550846,8.45217354 49.1524816,8.47252061" id="Fill-9" fill="#92939D"></path>
            <path d="M94.3532885,20.0397701 C94.3420521,19.8776009 94.3335488,19.695692 94.3162386,19.5146941 C94.1118568,17.3761258 91.9286464,16.1228069 89.9959783,17.0517874 C88.814026,17.6202907 88.3272148,18.6476659 88.2370195,19.9009848 C88.0760651,22.1343037 90.0214881,23.7532625 92.178885,23.1856703 C93.4959783,22.8391627 94.3584512,21.5995098 94.3532885,20.0397701 M88.3545466,24.6567332 C88.3545466,26.6124816 88.3472581,28.5190325 88.3621388,30.4255835 C88.3645683,30.7204642 88.2771063,30.7815054 88.0013579,30.7757354 C87.1513362,30.7578178 86.3007072,30.761462 85.4506855,30.7745206 C85.2283861,30.7778612 85.1646117,30.7207679 85.1649154,30.4933059 C85.1715965,25.1122646 85.1715965,19.7312234 85.1646117,14.3501822 C85.164308,14.1169501 85.2371931,14.0698785 85.4543297,14.0729154 C86.3286464,14.0850629 87.2035705,14.085974 88.0778872,14.072308 C88.3014013,14.0686638 88.3739826,14.1242386 88.3597093,14.352308 C88.3390586,14.6875792 88.3545466,15.0252798 88.3545466,15.3578178 C88.4921171,15.4009414 88.5200564,15.2928286 88.5704685,15.2405944 C89.6379306,14.1363861 90.9683861,13.7822863 92.4528113,13.8919176 C95.2828764,14.101462 97.1827462,16.3332625 97.5259132,19.0029805 C97.7208807,20.521115 97.5322907,21.9757787 96.8116399,23.3448026 C95.7681692,25.3260607 93.6408373,26.3021128 91.5296009,26.1451063 C90.1551106,26.0427636 89.8158915,25.855692 88.3545466,24.6567332" id="Fill-11" fill="#92939D"></path>
            <path d="M118.953627,20.070321 C118.935709,20.3093232 118.972456,20.5868937 119.030764,20.8596052 C119.262174,21.9431627 119.856794,22.7518829 120.921523,23.1126638 C121.999918,23.478 123.028811,23.3461996 123.914972,22.569974 C124.878269,21.7263297 125.078095,20.624551 124.92443,19.4249848 C124.686035,17.5642907 123.012412,16.4090629 121.212759,16.845462 C119.860742,17.173141 118.960004,18.4425553 118.953627,20.070321 M124.844863,15.4302777 C124.844863,14.9938785 124.853974,14.6452451 124.841219,14.2975228 C124.834538,14.1204729 124.893757,14.0727939 125.066859,14.0743124 C125.965471,14.0822082 126.864386,14.0876746 127.762694,14.0718829 C128.012325,14.0673275 128.058182,14.1520564 128.057575,14.3801258 C128.049072,16.3352668 128.052716,18.2907115 128.052716,20.2458525 C128.052716,22.0433796 128.047553,23.8409067 128.058182,25.6381302 C128.059701,25.8847245 128.0102,25.9715792 127.744473,25.9655054 C126.931501,25.9469805 126.117011,25.9457657 125.303735,25.9658091 C125.032239,25.9727939 124.983952,25.8780434 124.997618,25.6372191 C125.017965,25.2800824 125.002781,24.9214273 125.002781,24.4795618 C124.318573,25.3247245 123.523215,25.8340087 122.538356,26.0420347 C119.472933,26.6898004 116.577575,24.8582603 115.90764,21.7946594 C115.443302,19.6740087 115.708725,17.6608633 117.066208,15.893705 C118.621089,13.8690195 121.705037,13.2537484 123.780438,14.5246811 C124.154581,14.7539653 124.480438,15.0433796 124.844863,15.4302777" id="Fill-13" fill="#92939D"></path>
            <path d="M73.6220217,20.1536529 C73.5965119,20.3009414 73.6463167,20.5545206 73.6955141,20.8026334 C73.9232798,21.946321 74.5409805,22.7905727 75.6807202,23.1395098 C76.8146898,23.4869284 77.8657527,23.3004642 78.7318698,22.4340434 C79.5867505,21.5785553 79.7562082,20.5199002 79.593128,19.3737831 C79.3070542,17.3670152 77.247141,16.1783818 75.4292668,17.0092711 C74.1522603,17.5932625 73.6542126,18.6898785 73.6220217,20.1536529 M79.5226725,15.4419393 C79.5226725,15.0073623 79.5287462,14.6587289 79.5199393,14.3103991 C79.5156876,14.1521779 79.5366421,14.071397 79.7303948,14.0735228 C80.6533015,14.0835445 81.5765119,14.0862777 82.4997223,14.0729154 C82.7630195,14.0689675 82.7180738,14.2256703 82.7180738,14.3787289 L82.7180738,19.8815488 C82.7180738,21.800551 82.7135184,23.7198568 82.7238438,25.638859 C82.7253623,25.8872755 82.6734317,25.9710933 82.4092234,25.9653232 C81.5956443,25.947102 80.7814577,25.9510499 79.9675748,25.9638048 C79.7416312,25.9671453 79.6456659,25.9240217 79.6623688,25.671961 C79.6860564,25.3133059 79.6684425,24.9522213 79.6684425,24.5410282 C79.3954273,24.7994664 79.1813275,25.0424165 78.9286594,25.2346508 C77.4588113,26.3540434 75.8234534,26.3835011 74.1565119,25.8456703 C72.3626291,25.2671453 71.2128677,23.9986421 70.7023688,22.2008113 C70.0658395,19.9589892 70.286013,17.8131323 71.7294403,15.9153883 C73.3189414,13.82541 76.4372061,13.2368633 78.5268807,14.5721779 C78.8776399,14.7962993 79.1792017,15.075692 79.5226725,15.4419393" id="Fill-15" fill="#92939D"></path>
            <path d="M60.5376399,15.6038351 C61.6476182,14.4088243 62.9264469,13.8706898 64.435167,13.8712972 C66.7890499,13.8725119 68.3208503,15.2427505 68.5941692,17.5771974 C68.6521735,18.0722082 68.6761649,18.5675228 68.6761649,19.0655705 C68.6746464,21.2630542 68.6710022,23.4608416 68.6816312,25.6583254 C68.682846,25.9140304 68.6184642,25.9823601 68.3624555,25.9775011 C67.5008937,25.9604946 66.6381171,25.9601909 65.7765553,25.9775011 C65.5108286,25.9829675 65.4610239,25.8936833 65.4622386,25.6483037 C65.4716529,23.6084338 65.4661866,21.568564 65.4686161,19.5289978 C65.4692234,19.077718 65.4291367,18.6331193 65.3076616,18.1976312 C65.0653189,17.3284772 64.4558178,16.8337701 63.551436,16.7718178 C61.8586811,16.6564165 60.7116529,17.6361128 60.5707419,19.3316009 C60.4933015,20.2642256 60.5464469,21.1995835 60.5397657,22.133423 C60.5312625,23.2989761 60.5276182,24.464833 60.5449284,25.6300824 C60.54918,25.9106898 60.4677918,25.9711236 60.2005466,25.9656573 C59.3508286,25.947436 58.5005033,25.9501692 57.6510889,25.9644425 C57.4081388,25.9680868 57.3209805,25.9198004 57.3215879,25.6525553 C57.3306985,21.901102 57.3300911,18.1493449 57.3224989,14.3975879 C57.3221952,14.1516009 57.3732148,14.065961 57.637423,14.0714273 C58.5111323,14.0887375 59.3857527,14.0857007 60.259462,14.0723384 C60.4857093,14.0689978 60.5534317,14.1315575 60.5428026,14.3562863 C60.5245813,14.7386291 60.5376399,15.1221866 60.5376399,15.6038351" id="Fill-17" fill="#92939D"></path>
            <path d="M133.834594,17.0310759 C133.834594,19.8963688 133.830646,22.7610542 133.840972,25.6263471 C133.841883,25.8935922 133.785701,25.9728547 133.507219,25.9661735 C132.645657,25.9455228 131.783184,25.9494707 130.921623,25.9643514 C130.680191,25.968603 130.621579,25.8978438 130.621883,25.6615748 C130.62826,19.895154 130.62826,14.1287332 130.621579,8.36231236 C130.621275,8.11359219 130.677458,8.02886334 130.940148,8.03402603 C131.789562,8.05103254 132.639887,8.05528416 133.488998,8.03250759 C133.790256,8.02430803 133.840972,8.12756182 133.840364,8.39966594 C133.83095,11.2768026 133.834594,14.1539393 133.834594,17.0310759" id="Fill-19" fill="#92939D"></path>
        </g>
    </g>
</svg>